STARTFONT 2.1
FONT --Century24Rph-Regular-R-Normal--48-480-72-72-P-312-FONTSPECIFIC-0
SIZE 48 72 72
FONTBOUNDINGBOX 54 48 0 -9
METRICSSET 2
STARTPROPERTIES 19
FONT_ASCENT 39
FONT_DESCENT 9
PIXEL_SIZE 48
RESOLUTION_X 72
RESOLUTION_Y 72
POINT_SIZE 480
FACE_NAME "Classic 24-point H"
FOUNDRY ""
FAMILY_NAME "Century24Rph"
WEIGHT_NAME "Regular"
RELATIVE_WEIGHT 50
SLANT "R"
SPACING "P"
SETWIDTH_NAME "Normal"
RELATIVE_SETWIDTH 50
ADD_STYLE_NAME ""
AVERAGE_WIDTH 312
CHARSET_REGISTRY "FONTSPECIFIC"
CHARSET_ENCODING "0"
ENDPROPERTIES
CHARS 193
STARTCHAR char08
ENCODING 8
SWIDTH 604 0
DWIDTH 29 0
BBX 23 33 3 0
VVECTOR 15 39
SWIDTH1 0 -1000
DWIDTH1 0 -48
BITMAP 
E00000
E00000
E00000
E00000
E00000
E00000
E00000
E00000
E02000
E06000
E0E000
E1E000
E3E000
E7E000
EFE000
FFFFFE
FFFFFE
EFE000
E7E000
E3E000
E1E000
E0E000
E06000
E02000
E00000
E00000
E00000
E00000
E00000
E00000
E00000
E00000
E00000
ENDCHAR
STARTCHAR char09
ENCODING 9
SWIDTH 604 0
DWIDTH 29 0
BBX 23 33 3 0
VVECTOR 15 39
SWIDTH1 0 -1000
DWIDTH1 0 -48
BITMAP 
00000E
00000E
00000E
00000E
00000E
00000E
00000E
00000E
00080E
000C0E
000E0E
000F0E
000F8E
000FCE
000FEE
FFFFFE
FFFFFE
000FEE
000FCE
000F8E
000F0E
000E0E
000C0E
00080E
00000E
00000E
00000E
00000E
00000E
00000E
00000E
00000E
00000E
ENDCHAR
STARTCHAR char0C
ENCODING 12
SWIDTH 833 0
DWIDTH 40 0
BBX 31 33 5 0
VVECTOR 21 39
SWIDTH1 0 -1000
DWIDTH1 0 -48
BITMAP 
FFFFFFFE
FFFFFFFE
E000000E
E000000E
E000000E
E000000E
E000000E
E000000E
E000000E
E000000E
E000000E
E000000E
E000000E
E000000E
E000000E
E000000E
E000000E
E000000E
E000000E
E000000E
E000000E
E000000E
E000000E
E000000E
E000000E
E001000E
E003800E
FE07C0FE
FE0FE0FE
001FF000
003FF800
007FFC00
00FFFE00
ENDCHAR
STARTCHAR char0D
ENCODING 13
SWIDTH 833 0
DWIDTH 40 0
BBX 30 33 5 0
VVECTOR 20 39
SWIDTH1 0 -1000
DWIDTH1 0 -48
BITMAP 
03FFFFC0
03FFFFE0
00000010
00000018
0000001C
0000001C
0000001C
0000001C
0000001C
0000001C
0000001C
0000001C
0000001C
0000001C
0000001C
0000001C
0000001C
0000001C
0100001C
0300001C
0700001C
0F00001C
1F000018
3F000010
7FFFFFE0
FFFFFFC0
7F000000
3F000000
1F000000
0F000000
07000000
03000000
01000000
ENDCHAR
STARTCHAR char1C
ENCODING 28
SWIDTH 604 0
DWIDTH 29 0
BBX 21 17 4 8
VVECTOR 15 39
SWIDTH1 0 -1000
DWIDTH1 0 -48
BITMAP 
008000
018000
038000
078000
0F8000
1F8000
3F8000
7F7FF8
FFFFF8
7F7FF8
3F8000
1F8000
0F8000
078000
038000
018000
008000
ENDCHAR
STARTCHAR char1D
ENCODING 29
SWIDTH 604 0
DWIDTH 29 0
BBX 21 17 4 8
VVECTOR 15 39
SWIDTH1 0 -1000
DWIDTH1 0 -48
BITMAP 
000800
000C00
000E00
000F00
000F80
000FC0
000FE0
FFF7F0
FFFFF8
FFF7F0
000FE0
000FC0
000F80
000F00
000E00
000C00
000800
ENDCHAR
STARTCHAR char1E
ENCODING 30
SWIDTH 604 0
DWIDTH 29 0
BBX 17 21 6 5
VVECTOR 15 39
SWIDTH1 0 -1000
DWIDTH1 0 -48
BITMAP 
008000
01C000
03E000
07F000
0FF800
1FFC00
3FFE00
7FFF00
FEBF80
01C000
01C000
01C000
01C000
01C000
01C000
01C000
01C000
01C000
01C000
01C000
01C000
ENDCHAR
STARTCHAR char1F
ENCODING 31
SWIDTH 604 0
DWIDTH 29 0
BBX 17 19 6 7
VVECTOR 15 39
SWIDTH1 0 -1000
DWIDTH1 0 -48
BITMAP 
01C000
01C000
01C000
01C000
01C000
01C000
01C000
01C000
01C000
01C000
FEBF80
7FFF00
3FFE00
1FFC00
0FF800
07F000
03E000
01C000
008000
ENDCHAR
STARTCHAR char20
ENCODING 32
SWIDTH 458 0
DWIDTH 22 0
BBX 0 0 14 -9
VVECTOR 14 -9
SWIDTH1 0 0
DWIDTH1 0 0
BITMAP 
ENDCHAR
STARTCHAR char21
ENCODING 33
SWIDTH 375 0
DWIDTH 18 0
BBX 5 33 6 0
VVECTOR 9 39
SWIDTH1 0 -1000
DWIDTH1 0 -48
BITMAP 
70
F8
F8
F8
F8
F8
F8
F8
F8
F8
F8
F8
F8
F8
F8
70
70
70
70
20
20
20
20
20
00
00
00
00
00
70
F8
F8
70
ENDCHAR
STARTCHAR char22
ENCODING 34
SWIDTH 417 0
DWIDTH 20 0
BBX 14 10 3 23
VVECTOR 10 39
SWIDTH1 0 -1000
DWIDTH1 0 -48
BITMAP 
7038
F87C
F87C
F03C
7038
6018
2010
2010
2010
2010
ENDCHAR
STARTCHAR char23
ENCODING 35
SWIDTH 833 0
DWIDTH 40 0
BBX 34 32 3 1
VVECTOR 20 39
SWIDTH1 0 -1000
DWIDTH1 0 -48
BITMAP 
0000600600
0000600600
0000C00C00
0000C00C00
0001801800
0001801800
0003003000
0003003000
0006006000
07FFFFFFC0
07FBFF7FC0
000C00C000
0018018000
0018018000
0030030000
0030030000
0060060000
0060060000
00C00C0000
00C00C0000
0180180000
FF7FEFF000
FFFFFFF000
0300300000
0600600000
0600600000
0C00C00000
0C00C00000
1801800000
1801800000
3003000000
3003000000
ENDCHAR
STARTCHAR char24
ENCODING 36
SWIDTH 604 0
DWIDTH 29 0
BBX 22 36 3 -1
VVECTOR 14 39
SWIDTH1 0 -1000
DWIDTH1 0 -48
BITMAP 
003000
003000
003000
003000
01FF00
0E30E0
383030
703018
603068
E030F8
E03070
E03000
F03000
FC3000
7F3000
3FD000
0FFC00
03FF00
00FFC0
002FF0
0033F8
0030FC
00303C
00301C
00300C
70300C
F8300C
D83008
603018
303030
1C30C0
03FF00
003000
003000
003000
003000
ENDCHAR
STARTCHAR char25
ENCODING 37
SWIDTH 833 0
DWIDTH 40 0
BBX 36 33 2 0
VVECTOR 20 39
SWIDTH1 0 -1000
DWIDTH1 0 -48
BITMAP 
01E0000060
0E1C0000C0
1806000180
3003000300
7003800600
6001800C00
E001C01800
E001C03000
E001C06000
600180C000
7003818000
3003030000
1806060000
0E1C0C0000
01E0180000
0000300000
0000600000
0000C00000
0001807800
0003038700
0006060180
000C0C00C0
00181C00E0
0030180060
0060380070
00C0380070
0180380070
0300180070
06001C00E0
0C000C00C0
1800060180
3000038700
6000007800
ENDCHAR
STARTCHAR char26
ENCODING 38
SWIDTH 812 0
DWIDTH 39 0
BBX 35 33 2 0
VVECTOR 20 39
SWIDTH1 0 -1000
DWIDTH1 0 -48
BITMAP 
000F800000
0030700000
00E0380000
01C01C0000
01801E0000
03800E0000
03800E0000
03800C0000
03C01C0000
03C0180000
03E0300000
01E0C00000
01F3000000
00EC000000
0078000000
00FC07FFE0
03BC007E00
0F1E002C00
1E1F001800
3C0F001800
7C07801800
7807C01800
F803C01000
F801E03000
F801F03000
F800F82000
F8007C6000
7C003EC020
7C001D0020
3E000F8040
1F000FC080
03C031FF00
007FC07C00
ENDCHAR
STARTCHAR char27
ENCODING 39
SWIDTH 229 0
DWIDTH 11 0
BBX 5 10 3 23
VVECTOR 6 39
SWIDTH1 0 -1000
DWIDTH1 0 -48
BITMAP 
70
F8
F8
F8
70
70
20
20
20
20
ENDCHAR
STARTCHAR char28
ENCODING 40
SWIDTH 375 0
DWIDTH 18 0
BBX 13 44 3 -8
VVECTOR 10 39
SWIDTH1 0 -1000
DWIDTH1 0 -48
BITMAP 
0038
00C0
0180
0300
0600
0E00
1C00
1C00
3800
3800
7800
7000
7800
F000
7000
F000
F000
F000
F000
F000
F000
F000
F000
F000
F000
F000
F000
F000
F000
F000
7000
F800
7000
7800
3800
3800
1C00
1C00
0E00
0600
0300
0180
00C0
0038
ENDCHAR
STARTCHAR char29
ENCODING 41
SWIDTH 375 0
DWIDTH 18 0
BBX 13 44 2 -8
VVECTOR 9 39
SWIDTH1 0 -1000
DWIDTH1 0 -48
BITMAP 
E000
1800
0C00
0600
0300
0380
01C0
01C0
00E0
00E0
00F0
0070
00F0
0078
0070
0078
0078
0078
0078
0078
0078
0078
0078
0078
0078
0078
0078
0078
0078
0070
0078
00F0
0070
00F0
00E0
00E0
01C0
01C0
0380
0300
0600
0C00
1800
E000
ENDCHAR
STARTCHAR char2A
ENCODING 42
SWIDTH 604 0
DWIDTH 29 0
BBX 21 16 4 11
VVECTOR 15 39
SWIDTH1 0 -1000
DWIDTH1 0 -48
BITMAP 
1800C0
1C01C0
0E0380
070700
038E00
01DC00
00D800
FF77F8
FF77F8
00D800
01DC00
038E00
070700
0E0380
1C01C0
1800C0
ENDCHAR
STARTCHAR char2B
ENCODING 43
SWIDTH 833 0
DWIDTH 40 0
BBX 27 22 6 6
VVECTOR 20 39
SWIDTH1 0 -1000
DWIDTH1 0 -48
BITMAP 
000E0000
000E0000
000E0000
000E0000
000E0000
000E0000
000E0000
000E0000
000E0000
000E0000
FFF5FFE0
FFF5FFE0
000E0000
000E0000
000E0000
000E0000
000E0000
000E0000
000E0000
000E0000
000E0000
000E0000
ENDCHAR
STARTCHAR char2C
ENCODING 44
SWIDTH 250 0
DWIDTH 12 0
BBX 7 11 2 -7
VVECTOR 6 39
SWIDTH1 0 -1000
DWIDTH1 0 -48
BITMAP 
3C
7E
7E
36
0E
0C
0C
18
30
60
C0
ENDCHAR
STARTCHAR char2D
ENCODING 45
SWIDTH 833 0
DWIDTH 40 0
BBX 30 2 5 16
VVECTOR 20 39
SWIDTH1 0 -1000
DWIDTH1 0 -48
BITMAP 
FFFFFFFC
FFFFFFFC
ENDCHAR
STARTCHAR char2E
ENCODING 46
SWIDTH 250 0
DWIDTH 12 0
BBX 6 4 3 0
VVECTOR 6 39
SWIDTH1 0 -1000
DWIDTH1 0 -48
BITMAP 
78
FC
FC
78
ENDCHAR
STARTCHAR char2F
ENCODING 47
SWIDTH 375 0
DWIDTH 18 0
BBX 12 33 3 0
VVECTOR 9 39
SWIDTH1 0 -1000
DWIDTH1 0 -48
BITMAP 
0030
0030
0030
0060
0060
0060
00C0
00C0
00C0
0180
0180
0180
0300
0300
0300
0600
0600
0600
0C00
0C00
0C00
1800
1800
1800
3000
3000
3000
6000
6000
6000
C000
C000
C000
ENDCHAR
STARTCHAR char30
ENCODING 48
SWIDTH 604 0
DWIDTH 29 0
BBX 23 34 3 0
VVECTOR 15 39
SWIDTH1 0 -1000
DWIDTH1 0 -48
BITMAP 
007C00
018300
030180
0600C0
0E00E0
1C0070
1C0070
380038
3C0078
78003C
78003C
78003C
F8003E
78003C
F8003E
F8003E
F8003E
F8003E
F8003E
F8003E
78003C
F8003E
78003C
78003C
78003C
3C0078
380038
1C0070
1C0070
0E00E0
0600C0
030180
018300
007C00
ENDCHAR
STARTCHAR char31
ENCODING 49
SWIDTH 604 0
DWIDTH 29 0
BBX 20 33 4 0
VVECTOR 14 39
SWIDTH1 0 -1000
DWIDTH1 0 -48
BITMAP 
001000
003000
007000
01F000
07F000
38F000
00F000
00F000
00F000
00F000
00F000
00F000
00F000
00F000
00F000
00F000
00F000
00F000
00F000
00F000
00F000
00F000
00F000
00F000
00F000
00F000
00F000
00F000
00F000
00F000
00F000
01F800
FFFFF0
ENDCHAR
STARTCHAR char32
ENCODING 50
SWIDTH 604 0
DWIDTH 29 0
BBX 23 33 3 0
VVECTOR 15 39
SWIDTH1 0 -1000
DWIDTH1 0 -48
BITMAP 
01FC00
060380
1801E0
3000F0
6000F8
400078
C0007C
B8007C
FC007C
78007C
00007C
0000F8
0000F8
0001F0
0003E0
0007C0
000F80
001E00
003800
006000
018000
030000
060000
0C0000
180002
300002
200006
600006
40000E
C0001E
C0007E
FFFFFE
FFFFFE
ENDCHAR
STARTCHAR char33
ENCODING 51
SWIDTH 604 0
DWIDTH 29 0
BBX 24 33 2 0
VVECTOR 14 39
SWIDTH1 0 -1000
DWIDTH1 0 -48
BITMAP 
00FE00
0301C0
0C00F0
180078
30007C
20003C
60003E
5C003E
7E003E
3C003E
00007C
00007C
0000F8
0001F0
0003C0
007E00
0003C0
0000F0
000078
00003C
00003E
00003E
00001F
00001F
78001F
FC001F
B8001F
C0001E
40003E
60003C
300070
0C01C0
03FE00
ENDCHAR
STARTCHAR char34
ENCODING 52
SWIDTH 604 0
DWIDTH 29 0
BBX 26 33 1 0
VVECTOR 14 39
SWIDTH1 0 -1000
DWIDTH1 0 -48
BITMAP 
00003000
00007000
0000F000
0000F000
0001F000
0003F000
00037000
0006F000
000CF000
0018F000
0018F000
0030F000
0060F000
00C0F000
00C0F000
0180F000
0300F000
0600F000
0C00F000
0C00F000
1800F000
3000F000
6000F000
C000F000
FFFF6FC0
0000F000
0000F000
0000F000
0000F000
0000F000
0000F000
0001F800
003FFFC0
ENDCHAR
STARTCHAR char35
ENCODING 53
SWIDTH 604 0
DWIDTH 29 0
BBX 23 33 3 0
VVECTOR 15 39
SWIDTH1 0 -1000
DWIDTH1 0 -48
BITMAP 
700018
7FFFF0
7FFFC0
6FFF00
600000
600000
600000
600000
600000
600000
600000
600000
600000
60FF00
6300C0
640070
680038
50003C
60001C
40001E
00001E
00001E
00001E
00001E
78001E
FC001E
B8001C
C0003C
400038
200070
3000E0
0C0380
03FC00
ENDCHAR
STARTCHAR char36
ENCODING 54
SWIDTH 604 0
DWIDTH 29 0
BBX 23 33 3 0
VVECTOR 15 39
SWIDTH1 0 -1000
DWIDTH1 0 -48
BITMAP 
001F00
00E0C0
038020
070010
0E0008
1C00E8
3C01F8
3800F0
780000
780000
F80000
F00000
F00000
F07F00
F180C0
F30070
F60038
EC003C
FC001C
F8001E
F8001E
F8001E
F8001E
78001E
78001E
78001E
3C001C
3C003C
1E0038
0E0070
0700E0
01C380
007C00
ENDCHAR
STARTCHAR char37
ENCODING 55
SWIDTH 604 0
DWIDTH 29 0
BBX 24 33 3 0
VVECTOR 15 39
SWIDTH1 0 -1000
DWIDTH1 0 -48
BITMAP 
FFFFFF
FFFFFF
FFFFF6
F0000C
E00018
E00030
C00060
C000C0
800180
800300
800300
000600
000E00
000C00
001C00
003800
003800
006800
007000
00F000
00F000
00F000
00F000
00F000
01F000
01F000
01F000
01F000
01F000
01F000
01F000
00F000
00E000
ENDCHAR
STARTCHAR char38
ENCODING 56
SWIDTH 604 0
DWIDTH 29 0
BBX 24 33 2 0
VVECTOR 14 39
SWIDTH1 0 -1000
DWIDTH1 0 -48
BITMAP 
007F00
0380E0
0E0030
1C0018
3C001C
38000C
78000E
78000E
78000E
7C000C
3C001C
3F0018
1F8030
0FC0C0
07F300
03FC00
00FF00
01BFC0
060FE0
0C03F8
1800FC
30007E
70003E
60001F
E0001F
E0000F
E0000F
60000E
70000E
30001C
180038
0600E0
01FF00
ENDCHAR
STARTCHAR char39
ENCODING 57
SWIDTH 604 0
DWIDTH 29 0
BBX 24 33 2 0
VVECTOR 14 39
SWIDTH1 0 -1000
DWIDTH1 0 -48
BITMAP 
007C00
038380
0E00E0
1C0070
3C0078
78003C
78003C
F0001E
F0001E
F0001E
F0001F
F0001F
F0001F
70001F
78003F
38003F
1C006F
0E009F
03031F
00FC1E
00001E
00001E
00003E
00003C
00003C
380038
7C0078
580070
4000E0
2001C0
100380
0C0E00
03F800
ENDCHAR
STARTCHAR char3A
ENCODING 58
SWIDTH 250 0
DWIDTH 12 0
BBX 6 18 3 0
VVECTOR 6 39
SWIDTH1 0 -1000
DWIDTH1 0 -48
BITMAP 
78
FC
FC
78
00
00
00
00
00
00
00
00
00
00
78
FC
FC
78
ENDCHAR
STARTCHAR char3B
ENCODING 59
SWIDTH 250 0
DWIDTH 12 0
BBX 7 25 2 -7
VVECTOR 6 39
SWIDTH1 0 -1000
DWIDTH1 0 -48
BITMAP 
3C
7E
7E
3C
00
00
00
00
00
00
00
00
00
00
3C
7E
7E
36
0C
0C
08
18
30
60
C0
ENDCHAR
STARTCHAR char3C
ENCODING 60
SWIDTH 604 0
DWIDTH 29 0
BBX 13 21 8 6
VVECTOR 15 39
SWIDTH1 0 -1000
DWIDTH1 0 -48
BITMAP 
0038
0070
00E0
01C0
0380
0700
0E00
1C00
3800
7000
E000
7000
3800
1C00
0E00
0700
0380
01C0
00E0
0070
0038
ENDCHAR
STARTCHAR char3D
ENCODING 61
SWIDTH 833 0
DWIDTH 40 0
BBX 30 10 5 12
VVECTOR 20 39
SWIDTH1 0 -1000
DWIDTH1 0 -48
BITMAP 
FFFFFFFC
FFFFFFFC
00000000
00000000
00000000
00000000
00000000
00000000
FFFFFFFC
FFFFFFFC
ENDCHAR
STARTCHAR char3E
ENCODING 62
SWIDTH 604 0
DWIDTH 29 0
BBX 13 21 8 6
VVECTOR 15 39
SWIDTH1 0 -1000
DWIDTH1 0 -48
BITMAP 
E000
7000
3800
1C00
0E00
0700
0380
01C0
00E0
0070
0038
0070
00E0
01C0
0380
0700
0E00
1C00
3800
7000
E000
ENDCHAR
STARTCHAR char3F
ENCODING 63
SWIDTH 604 0
DWIDTH 29 0
BBX 20 33 4 0
VVECTOR 14 39
SWIDTH1 0 -1000
DWIDTH1 0 -48
BITMAP 
07F800
180700
2003C0
4001E0
8001E0
8000F0
B800F0
DC00F0
7800F0
0000F0
0001E0
0001E0
0003C0
000780
000E00
001C00
003800
003000
006000
00C000
008000
010000
010000
010000
010000
000000
000000
000000
000000
03C000
07E000
07E000
03C000
ENDCHAR
STARTCHAR char40
ENCODING 64
SWIDTH 833 0
DWIDTH 40 0
BBX 32 26 4 4
VVECTOR 20 39
SWIDTH1 0 -1000
DWIDTH1 0 -48
BITMAP 
007FFE00
01800180
06000060
0C000030
18000018
3000000C
3007C40E
70182406
70301407
E0300C07
E0600C07
E0600C07
E0600C07
E0600C07
E0600C06
E0600C06
E0300C04
7030140C
70182618
3007C1E0
30000000
18000000
0C000000
06000020
018000C0
007FFF00
ENDCHAR
STARTCHAR char41
ENCODING 65
SWIDTH 771 0
DWIDTH 37 0
BBX 35 33 1 0
VVECTOR 19 39
SWIDTH1 0 -1000
DWIDTH1 0 -48
BITMAP 
0000400000
0000E00000
0000E00000
0001F00000
0001F00000
0003780000
0003780000
00063C0000
00063C0000
000C1E0000
000C1E0000
00080E0000
00180F0000
00180F0000
0010070000
0030078000
0030078000
0020038000
006003C000
006003C000
004001C000
00BFFEE000
00C001E000
008000E000
018000F000
018000F000
0100007000
0300007800
0300007800
0200003800
0600003C00
0D00005E00
FFF007FFE0
ENDCHAR
STARTCHAR char42
ENCODING 66
SWIDTH 771 0
DWIDTH 37 0
BBX 33 33 2 0
VVECTOR 19 39
SWIDTH1 0 -1000
DWIDTH1 0 -48
BITMAP 
FFFFFE0000
05F801C000
03E000F000
03C0007800
03C0007C00
03C0003C00
03C0003E00
03C0003E00
03C0003E00
03C0003E00
03C0003C00
03C0007C00
03C0007800
03C000F000
03C003C000
03FFFE0000
03C001F000
03C0007C00
03C0003E00
03C0001F00
03C0001F00
03C0000F80
03C0000F80
03C0000F80
03C0000F80
03C0000F80
03C0000F00
03C0001F00
03C0001E00
03C0003C00
03E0007000
05F801C000
FFFFFE0000
ENDCHAR
STARTCHAR char43
ENCODING 67
SWIDTH 708 0
DWIDTH 34 0
BBX 29 34 3 -1
VVECTOR 18 39
SWIDTH1 0 -1000
DWIDTH1 0 -48
BITMAP 
000FF810
00700710
01C001B0
038000B0
07000070
0E000030
1E000030
1C000010
3C000010
3C000010
78000000
78000000
78000000
F8000000
F8000000
F8000000
F8000000
F8000000
F8000000
F8000000
F8000000
78000000
78000000
78000008
3C000008
3C000008
1C000018
1E000010
0E000030
07000020
03800060
01C000C0
00700300
000FFC00
ENDCHAR
STARTCHAR char44
ENCODING 68
SWIDTH 833 0
DWIDTH 40 0
BBX 35 33 2 0
VVECTOR 20 39
SWIDTH1 0 -1000
DWIDTH1 0 -48
BITMAP 
FFFFFE0000
05C001C000
03C000F000
03C0003C00
03C0001E00
03C0001F00
03C0000F80
03C0000F80
03C00007C0
03C00007C0
03C00003E0
03C00003E0
03C00003E0
03C00003E0
03C00003E0
03C00003E0
03C00003E0
03C00003E0
03C00003E0
03C00003E0
03C00003E0
03C00003E0
03C00007C0
03C00007C0
03C0000780
03C0000F80
03C0000F00
03C0001E00
03C0003C00
03C0007800
03C000E000
05E0038000
FFFFFC0000
ENDCHAR
STARTCHAR char45
ENCODING 69
SWIDTH 729 0
DWIDTH 35 0
BBX 31 33 2 0
VVECTOR 18 39
SWIDTH1 0 -1000
DWIDTH1 0 -48
BITMAP 
FFFFFFFC
05E001FC
03C0007C
03C0003C
03C0001C
03C0001C
03C0000C
03C0000C
03C00004
03C01004
03C01004
03C01000
03C03000
03C03000
03C05000
03FFF000
03C05000
03C03000
03C03000
03C01000
03C01000
03C01000
03C00002
03C00002
03C00002
03C00006
03C00006
03C0000E
03C0000E
03C0001E
03C0003E
05E000FE
FFFFFFFE
ENDCHAR
STARTCHAR char46
ENCODING 70
SWIDTH 688 0
DWIDTH 33 0
BBX 29 33 2 0
VVECTOR 17 39
SWIDTH1 0 -1000
DWIDTH1 0 -48
BITMAP 
FFFFFFF8
05E003F8
03C000F8
03C00078
03C00038
03C00038
03C00018
03C00018
03C00008
03C01008
03C01008
03C01000
03C03000
03C03000
03C05000
03FFF000
03C05000
03C03000
03C03000
03C01000
03C01000
03C01000
03C00000
03C00000
03C00000
03C00000
03C00000
03C00000
03C00000
03C00000
03C00000
05E00000
FFFF0000
ENDCHAR
STARTCHAR char47
ENCODING 71
SWIDTH 854 0
DWIDTH 41 0
BBX 37 34 3 -1
VVECTOR 22 39
SWIDTH1 0 -1000
DWIDTH1 0 -48
BITMAP 
0007FC0800
0078030800
01E000D800
07C0005800
0F80003800
1F00001800
1E00001800
3E00000800
3C00000800
7C00000800
7C00000000
F800000000
F800000000
F800000000
F800000000
F800000000
F800000000
F800000000
F8001FFFF8
F80000DB00
F800003C00
F800003C00
7C00003C00
7C00003C00
3C00003C00
3E00003C00
1E00003C00
1F00003C00
0F00003C00
0780007C00
03C000DC00
00E0019C00
0038060C00
0007F80400
ENDCHAR
STARTCHAR char48
ENCODING 72
SWIDTH 875 0
DWIDTH 42 0
BBX 38 33 2 0
VVECTOR 21 39
SWIDTH1 0 -1000
DWIDTH1 0 -48
BITMAP 
FFFF03FFFC
05A0001680
03C0000F00
03C0000F00
03C0000F00
03C0000F00
03C0000F00
03C0000F00
03C0000F00
03C0000F00
03C0000F00
03C0000F00
03C0000F00
03C0000F00
03C0000F00
03BFFFF700
03C0000F00
03C0000F00
03C0000F00
03C0000F00
03C0000F00
03C0000F00
03C0000F00
03C0000F00
03C0000F00
03C0000F00
03C0000F00
03C0000F00
03C0000F00
03C0000F00
03C0000F00
05A0001680
FFFF03FFFC
ENDCHAR
STARTCHAR char49
ENCODING 73
SWIDTH 417 0
DWIDTH 20 0
BBX 16 33 2 0
VVECTOR 10 39
SWIDTH1 0 -1000
DWIDTH1 0 -48
BITMAP 
FFFF
05A0
03C0
03C0
03C0
03C0
03C0
03C0
03C0
03C0
03C0
03C0
03C0
03C0
03C0
03C0
03C0
03C0
03C0
03C0
03C0
03C0
03C0
03C0
03C0
03C0
03C0
03C0
03C0
03C0
03C0
05A0
FFFF
ENDCHAR
STARTCHAR char4A
ENCODING 74
SWIDTH 604 0
DWIDTH 29 0
BBX 26 33 1 0
VVECTOR 14 39
SWIDTH1 0 -1000
DWIDTH1 0 -48
BITMAP 
00FFFFC0
0002D000
0001E000
0001E000
0001E000
0001E000
0001E000
0001E000
0001E000
0001E000
0001E000
0001E000
0001E000
0001E000
0001E000
0001E000
0001E000
0001E000
0001E000
0001E000
0001E000
0001E000
0001E000
0001E000
3C01E000
7E01E000
DE01E000
BC01E000
C001C000
6003C000
30038000
1C070000
07FC0000
ENDCHAR
STARTCHAR char4B
ENCODING 75
SWIDTH 875 0
DWIDTH 42 0
BBX 39 33 2 0
VVECTOR 22 39
SWIDTH1 0 -1000
DWIDTH1 0 -48
BITMAP 
FFFF03FFF8
05A0001700
03C0000E00
03C0000C00
03C0001800
03C0003000
03C0006000
03C000C000
03C0018000
03C0030000
03C0060000
03C00C0000
03C0180000
03C0300000
03C0700000
03C0F00000
03C1F80000
03C37C0000
03C63E0000
03CC1E0000
03D80F0000
03F0078000
03E007C000
03C003E000
03C001F000
03C000F000
03C0007800
03C0007C00
03C0003E00
03C0001F00
03C0000F80
05A0001740
FFFF03FFFE
ENDCHAR
STARTCHAR char4C
ENCODING 76
SWIDTH 708 0
DWIDTH 34 0
BBX 30 33 2 0
VVECTOR 17 39
SWIDTH1 0 -1000
DWIDTH1 0 -48
BITMAP 
FFFF0000
05A00000
03C00000
03C00000
03C00000
03C00000
03C00000
03C00000
03C00000
03C00000
03C00000
03C00000
03C00000
03C00000
03C00000
03C00000
03C00000
03C00000
03C00000
03C00000
03C00000
03C00000
03C00004
03C00004
03C00004
03C00004
03C0000C
03C0000C
03C0001C
03C0003C
03A000DC
05F0037C
FFFFFFFC
ENDCHAR
STARTCHAR char4D
ENCODING 77
SWIDTH 1042 0
DWIDTH 50 0
BBX 46 33 2 0
VVECTOR 25 39
SWIDTH1 0 -1000
DWIDTH1 0 -48
BITMAP 
FFFC0000FFFC
05FC0000FE80
033C0000CF00
033E00018F00
031E00018F00
031E00010F00
030F00030F00
030F00030F00
030F00020F00
030780060F00
030780060F00
030780040F00
0303C00C0F00
0303C00C0F00
0303C0080F00
0301E0180F00
0301E0180F00
0301E0100F00
0300F0300F00
0300F0300F00
0300F0200F00
030078600F00
030078600F00
030078400F00
03003CC00F00
03003CC00F00
03003C800F00
03001E800F00
03001F800F00
03000F000F00
03000F000F00
078006001680
FFFC0603FFFC
ENDCHAR
STARTCHAR char4E
ENCODING 78
SWIDTH 896 0
DWIDTH 43 0
BBX 39 33 2 0
VVECTOR 22 39
SWIDTH1 0 -1000
DWIDTH1 0 -48
BITMAP 
FF80007FFE
07C00003C0
03C0000180
03E0000180
03F0000180
02F8000180
037C000180
033E000180
031F000180
030F800180
0307800180
0307C00180
0303E00180
0301F00180
0300F80180
0300780180
03003C0180
03003E0180
03001F0180
03000F8180
030007C180
030003E180
030001E180
030000F180
030000F980
0300007D80
0300003E80
0300001F80
0300000F80
0300000780
0300000380
0780000180
FFFC000180
ENDCHAR
STARTCHAR char4F
ENCODING 79
SWIDTH 812 0
DWIDTH 39 0
BBX 33 34 3 -1
VVECTOR 20 39
SWIDTH1 0 -1000
DWIDTH1 0 -48
BITMAP 
000FF80000
0070070000
01C001C000
038000E000
0700007000
0E00003800
1E00003C00
1C00001C00
3C00001E00
3C00001E00
7800000F00
7800000F00
F800000F80
7800000F00
F800000F80
F800000F80
F800000F80
F800000F80
F800000F80
F800000F80
7800000F00
F800000F80
7800000F00
7800000F00
3C00001E00
3C00001E00
1C00001C00
1E00003C00
0E00003800
0700007000
038000E000
01C001C000
0070070000
000FF80000
ENDCHAR
STARTCHAR char50
ENCODING 80
SWIDTH 750 0
DWIDTH 36 0
BBX 32 33 2 0
VVECTOR 18 39
SWIDTH1 0 -1000
DWIDTH1 0 -48
BITMAP 
FFFFFE00
05E001C0
03C000F0
03C0003C
03C0003E
03C0001E
03C0001F
03C0001F
03C0001F
03C0001F
03C0001F
03C0001E
03C0003E
03C0003C
03C00078
03C000E0
03C00380
03FFFC00
03C00000
03C00000
03C00000
03C00000
03C00000
03C00000
03C00000
03C00000
03C00000
03C00000
03C00000
03C00000
03C00000
05A00000
FFFF0000
ENDCHAR
STARTCHAR char51
ENCODING 81
SWIDTH 812 0
DWIDTH 39 0
BBX 33 38 3 -5
VVECTOR 20 39
SWIDTH1 0 -1000
DWIDTH1 0 -48
BITMAP 
000FF80000
0070070000
01C001C000
038000E000
0700007000
0E00003800
1E00003C00
1C00001C00
3C00001E00
3C00001E00
7800000F00
7800000F00
F800000F80
7800000F00
F800000F80
F800000F80
F800000F80
F800000F80
F800000F80
F800000F00
7800000F80
F800000F00
7800000F00
7800001E00
3C07C01E00
3C18201C00
1C20103C00
1E20103800
0E20187000
0620186000
03201CC000
01901D8000
00C81B0000
0037EC0200
00000E0200
00000F8400
000007F800
000001F000
ENDCHAR
STARTCHAR char52
ENCODING 82
SWIDTH 792 0
DWIDTH 38 0
BBX 35 33 2 0
VVECTOR 20 39
SWIDTH1 0 -1000
DWIDTH1 0 -48
BITMAP 
FFFFFC0000
05A003C000
03C001F000
03C000F800
03C0007C00
03C0007C00
03C0003E00
03C0003E00
03C0003E00
03C0003E00
03C0003E00
03C0007C00
03C0007C00
03C000F800
03C001E000
03C0078000
03FFF80000
03C00E0000
03C0030000
03C0038000
03C001C000
03C001C000
03C001E000
03C001E000
03C001F000
03C001F000
03C001F000
03C001F000
03C001F820
03C000F820
03C000FC60
05A0007FC0
FFFF001F80
ENDCHAR
STARTCHAR char53
ENCODING 83
SWIDTH 583 0
DWIDTH 28 0
BBX 24 33 2 0
VVECTOR 14 39
SWIDTH1 0 -1000
DWIDTH1 0 -48
BITMAP 
00FC04
070384
1C006C
30002C
70001C
E0000C
E0000C
E00004
E00004
F00004
780000
7E0000
3F8000
1FE000
07F800
01FE00
007FC0
001FF0
0003F8
0000FC
00003E
00001F
80001F
80000F
C0000F
C0000F
E0000E
E0001E
F0001C
D80038
CC0070
8701C0
80FE00
ENDCHAR
STARTCHAR char54
ENCODING 84
SWIDTH 708 0
DWIDTH 34 0
BBX 30 33 2 0
VVECTOR 17 39
SWIDTH1 0 -1000
DWIDTH1 0 -48
BITMAP 
FFFFFFFC
FC0780FC
F007803C
E007801C
E007801C
C007800C
C007800C
C007800C
80078004
80078004
80078004
00078000
00078000
00078000
00078000
00078000
00078000
00078000
00078000
00078000
00078000
00078000
00078000
00078000
00078000
00078000
00078000
00078000
00078000
00078000
00078000
000B4000
01FFFE00
ENDCHAR
STARTCHAR char55
ENCODING 85
SWIDTH 875 0
DWIDTH 42 0
BBX 38 33 2 0
VVECTOR 21 39
SWIDTH1 0 -1000
DWIDTH1 0 -48
BITMAP 
FFFF00FFFC
05A0000780
03C0000300
03C0000300
03C0000300
03C0000300
03C0000300
03C0000300
03C0000300
03C0000300
03C0000300
03C0000300
03C0000300
03C0000300
03C0000300
03C0000300
03C0000300
03C0000300
03C0000300
03C0000300
03C0000300
03C0000300
03C0000300
03C0000300
03C0000300
03C0000300
03C0000300
01E0000600
01E0000600
00F0000C00
0078001800
001E007000
0003FF8000
ENDCHAR
STARTCHAR char56
ENCODING 86
SWIDTH 729 0
DWIDTH 35 0
BBX 33 33 1 0
VVECTOR 18 39
SWIDTH1 0 -1000
DWIDTH1 0 -48
BITMAP 
FFFC07FF80
0F40005800
0F80003000
0780003000
0780002000
03C0006000
03C0006000
03C0004000
01E000C000
01E000C000
01E0008000
00F0018000
00F0018000
00F0010000
0078030000
0078030000
0078020000
003C060000
003C060000
003C040000
001E0C0000
001E0C0000
001E080000
000F180000
000F180000
000F100000
0007B00000
0007B00000
0007E00000
0003E00000
0003C00000
0001C00000
0001C00000
ENDCHAR
STARTCHAR char57
ENCODING 87
SWIDTH 1146 0
DWIDTH 55 0
BBX 53 33 1 0
VVECTOR 28 39
SWIDTH1 0 -1000
DWIDTH1 0 -48
BITMAP 
FFFC1FFF80FFF8
0F4001E8000B80
0F8000F0000600
078000F0000600
078000F0000400
03C00078000C00
03C00078000C00
03C0007C000800
01E000FC001800
01E000BC001800
01E0009E001000
00F0019E003000
00F0019E003000
00F0010F002000
0078030F006000
0078030F006000
00780207804000
003C060780C000
003C060780C000
003C0403C08000
001E0C03C18000
001E0C03C18000
001E0801E10000
000F1801E30000
000F1801E30000
000F1000F20000
0007B000F60000
0007B000F60000
0007E0007C0000
0003E0007C0000
0003E0007C0000
0001C000380000
0001C000380000
ENDCHAR
STARTCHAR char58
ENCODING 88
SWIDTH 792 0
DWIDTH 38 0
BBX 36 33 1 0
VVECTOR 19 39
SWIDTH1 0 -1000
DWIDTH1 0 -48
BITMAP 
7FFF03FFE0
07C0002C00
03E0001800
01E0003000
00F0003000
00F8006000
007800C000
003C00C000
001E018000
001E030000
000F060000
0007860000
00078C0000
0003D80000
0001F00000
0001E00000
0000F00000
0001F80000
0001780000
00033C0000
00061E0000
000C1E0000
00080F0000
0018078000
0030078000
006003C000
006001E000
00C001E000
018000F000
0180007800
0300007C00
0E8000BF00
FFF80FFFF0
ENDCHAR
STARTCHAR char59
ENCODING 89
SWIDTH 771 0
DWIDTH 37 0
BBX 35 33 1 0
VVECTOR 19 39
SWIDTH1 0 -1000
DWIDTH1 0 -48
BITMAP 
FFFC03FFE0
0F40002E00
0780001C00
03C0001800
01E0001000
01E0003000
00F0002000
0078004000
007800C000
003C008000
001E010000
001E030000
000F020000
0007840000
00078C0000
0003C80000
0001D80000
0001F00000
0000F00000
0000F00000
0000F00000
0000F00000
0000F00000
0000F00000
0000F00000
0000F00000
0000F00000
0000F00000
0000F00000
0000F00000
0000F00000
0001680000
003FFFC000
ENDCHAR
STARTCHAR char5A
ENCODING 90
SWIDTH 625 0
DWIDTH 30 0
BBX 27 33 1 0
VVECTOR 15 39
SWIDTH1 0 -1000
DWIDTH1 0 -48
BITMAP 
7FFFFFE0
7F0003E0
7C0007C0
78000780
70000F80
70000F00
60001E00
60003E00
40003C00
40007800
0000F800
0000F000
0001E000
0003E000
0007C000
00078000
000F0000
001F0000
003E0000
003C0000
00780000
00F80000
01F00000
01E00020
03C00020
07C00060
0F800060
0F0000E0
1E0000E0
3E0001E0
7C0003E0
F8000FE0
FFFFFFE0
ENDCHAR
STARTCHAR char5B
ENCODING 91
SWIDTH 375 0
DWIDTH 18 0
BBX 9 44 5 -8
VVECTOR 10 39
SWIDTH1 0 -1000
DWIDTH1 0 -48
BITMAP 
FF80
E800
F000
E000
E000
E000
E000
E000
E000
E000
E000
E000
E000
E000
E000
E000
E000
E000
E000
E000
E000
E000
E000
E000
E000
E000
E000
E000
E000
E000
E000
E000
E000
E000
E000
E000
E000
E000
E000
E000
E000
F000
E800
FF80
ENDCHAR
STARTCHAR char5C
ENCODING 92
SWIDTH 375 0
DWIDTH 18 0
BBX 12 33 3 0
VVECTOR 9 39
SWIDTH1 0 -1000
DWIDTH1 0 -48
BITMAP 
C000
C000
C000
6000
6000
6000
3000
3000
3000
1800
1800
1800
0C00
0C00
0C00
0600
0600
0600
0300
0300
0300
0180
0180
0180
00C0
00C0
00C0
0060
0060
0060
0030
0030
0030
ENDCHAR
STARTCHAR char5D
ENCODING 93
SWIDTH 375 0
DWIDTH 18 0
BBX 9 44 4 -8
VVECTOR 9 39
SWIDTH1 0 -1000
DWIDTH1 0 -48
BITMAP 
FF80
0B80
0780
0380
0380
0380
0380
0380
0380
0380
0380
0380
0380
0380
0380
0380
0380
0380
0380
0380
0380
0380
0380
0380
0380
0380
0380
0380
0380
0380
0380
0380
0380
0380
0380
0380
0380
0380
0380
0380
0380
0780
0B80
FF80
ENDCHAR
STARTCHAR char5E
ENCODING 94
SWIDTH 604 0
DWIDTH 29 0
BBX 13 7 8 32
VVECTOR 15 39
SWIDTH1 0 -1000
DWIDTH1 0 -48
BITMAP 
0200
0700
0F80
1DC0
38E0
7070
E038
ENDCHAR
STARTCHAR char5F
ENCODING 95
SWIDTH 833 0
DWIDTH 40 0
BBX 40 2 0 -9
VVECTOR 20 39
SWIDTH1 0 -1000
DWIDTH1 0 -48
BITMAP 
FFFFFFFFFF
FFFFFFFFFF
ENDCHAR
STARTCHAR char60
ENCODING 96
SWIDTH 604 0
DWIDTH 29 0
BBX 10 7 9 32
VVECTOR 14 39
SWIDTH1 0 -1000
DWIDTH1 0 -48
BITMAP 
F000
F800
7C00
1E00
0700
0180
0040
ENDCHAR
STARTCHAR char61
ENCODING 97
SWIDTH 646 0
DWIDTH 31 0
BBX 28 24 2 0
VVECTOR 16 39
SWIDTH1 0 -1000
DWIDTH1 0 -48
BITMAP 
00FF0000
0700E000
1C007000
18003800
34003800
3E003C00
1C003C00
00003C00
00003C00
00007C00
0003DC00
003C3C00
03C03C00
0F003C00
3E003C00
7C003C00
FC003C00
F8003C00
F8003C00
F8007C10
7C006C10
3C009C10
0F030E20
01FC03C0
ENDCHAR
STARTCHAR char62
ENCODING 98
SWIDTH 688 0
DWIDTH 33 0
BBX 28 33 2 0
VVECTOR 16 39
SWIDTH1 0 -1000
DWIDTH1 0 -48
BITMAP 
FF800000
0B800000
07800000
07800000
07800000
07800000
07800000
07800000
07800000
0787E000
07981C00
07A00F00
07400780
07C003C0
078003C0
078001E0
078003E0
078001F0
078001F0
078001F0
078001F0
078001F0
078001F0
078001F0
078001F0
078003E0
078001E0
078003C0
078003C0
06C00780
06600F00
06181C00
0407E000
ENDCHAR
STARTCHAR char63
ENCODING 99
SWIDTH 542 0
DWIDTH 26 0
BBX 21 24 3 0
VVECTOR 14 39
SWIDTH1 0 -1000
DWIDTH1 0 -48
BITMAP 
007F00
0380C0
0F0020
1E0010
3C0068
3C00F8
780070
780000
F80000
F80000
F80000
F80000
F80000
F80000
F80000
F80000
780000
780000
3C0000
3C0008
1E0010
0F0020
0380C0
007F00
ENDCHAR
STARTCHAR char64
ENCODING 100
SWIDTH 688 0
DWIDTH 33 0
BBX 28 33 3 0
VVECTOR 17 39
SWIDTH1 0 -1000
DWIDTH1 0 -48
BITMAP 
0003FE00
00002E00
00001E00
00001E00
00001E00
00001E00
00001E00
00001E00
00001E00
007E1E00
03819E00
0F005E00
1E002E00
3C003E00
3C001E00
78001E00
7C001E00
F8001E00
F8001E00
F8001E00
F8001E00
F8001E00
F8001E00
F8001E00
F8001E00
7C001E00
78001E00
3C001E00
3C001E00
1E002E00
0F004E00
03818D00
007E0FF0
ENDCHAR
STARTCHAR char65
ENCODING 101
SWIDTH 583 0
DWIDTH 28 0
BBX 23 24 3 0
VVECTOR 15 39
SWIDTH1 0 -1000
DWIDTH1 0 -48
BITMAP 
007E00
038180
0E00E0
1C0070
3C0038
38003C
78001C
78001E
F8001E
F8001E
F8001E
F7FFFE
F80000
F80000
F80000
F80000
780000
780000
380000
3C0004
1C0008
0E0010
038060
007F80
ENDCHAR
STARTCHAR char66
ENCODING 102
SWIDTH 521 0
DWIDTH 25 0
BBX 21 33 2 0
VVECTOR 13 39
SWIDTH1 0 -1000
DWIDTH1 0 -48
BITMAP 
001FC0
007030
00E018
01C068
01C0F8
03C070
03C000
03C000
03C000
03C000
03C000
FFFF80
03C000
03C000
03C000
03C000
03C000
03C000
03C000
03C000
03C000
03C000
03C000
03C000
03C000
03C000
03C000
03C000
03C000
03C000
03C000
07A000
FFFF80
ENDCHAR
STARTCHAR char67
ENCODING 103
SWIDTH 583 0
DWIDTH 28 0
BBX 25 37 2 -9
VVECTOR 15 39
SWIDTH1 0 -1000
DWIDTH1 0 -48
BITMAP 
00000F00
00003780
00006700
0000C000
007E8000
0381C000
0E007000
1E007800
1C003800
3C003C00
3C003C00
3C003C00
3C003C00
1C003800
1E007800
0E007000
0580E000
03FF0000
0E000000
38000000
70000000
70000000
78000000
7FFF0000
3FFFE000
0FFFF800
06007C00
18001E00
30000F00
70000700
E0000700
E0000700
E0000600
70000C00
38001800
1C006000
03FF8000
ENDCHAR
STARTCHAR char68
ENCODING 104
SWIDTH 750 0
DWIDTH 36 0
BBX 32 33 2 0
VVECTOR 18 39
SWIDTH1 0 -1000
DWIDTH1 0 -48
BITMAP 
FF800000
0B800000
07800000
07800000
07800000
07800000
07800000
07800000
07800000
0783F000
078C0E00
07900780
07A003C0
074003C0
07C001E0
078001E0
078001E0
078001E0
078001E0
078001E0
078001E0
078001E0
078001E0
078001E0
078001E0
078001E0
078001E0
078001E0
078001E0
078001E0
078001E0
0B4001D0
FFF801FF
ENDCHAR
STARTCHAR char69
ENCODING 105
SWIDTH 375 0
DWIDTH 18 0
BBX 14 33 2 0
VVECTOR 9 39
SWIDTH1 0 -1000
DWIDTH1 0 -48
BITMAP 
0700
0F80
0F80
0700
0000
0000
0000
0000
0000
FF80
0B80
0780
0780
0780
0780
0780
0780
0780
0780
0780
0780
0780
0780
0780
0780
0780
0780
0780
0780
0780
0780
0B40
FFFC
ENDCHAR
STARTCHAR char6A
ENCODING 106
SWIDTH 375 0
DWIDTH 18 0
BBX 15 42 1 -9
VVECTOR 9 39
SWIDTH1 0 -1000
DWIDTH1 0 -48
BITMAP 
001C
003E
003E
001C
0000
0000
0000
0000
0000
03FE
002E
001E
001E
001E
001E
001E
001E
001E
001E
001E
001E
001E
001E
001E
001E
001E
001E
001E
001E
001E
001E
001E
001E
001E
001E
701E
F81E
B01C
C01C
4018
3030
0FC0
ENDCHAR
STARTCHAR char6B
ENCODING 107
SWIDTH 708 0
DWIDTH 34 0
BBX 31 33 2 0
VVECTOR 18 39
SWIDTH1 0 -1000
DWIDTH1 0 -48
BITMAP 
FF800000
0B800000
07800000
07800000
07800000
07800000
07800000
07800000
07800000
07807FF8
07800580
07800300
07800600
07800C00
07801800
07803000
07806000
0780C000
07818000
07838000
0787C000
078FE000
0799E000
07B0F000
07E0F800
07C07C00
07803C00
07801E00
07800F00
07800F80
078007C0
0B4003E0
FFFC01FE
ENDCHAR
STARTCHAR char6C
ENCODING 108
SWIDTH 375 0
DWIDTH 18 0
BBX 14 33 2 0
VVECTOR 9 39
SWIDTH1 0 -1000
DWIDTH1 0 -48
BITMAP 
FF80
0B80
0780
0780
0780
0780
0780
0780
0780
0780
0780
0780
0780
0780
0780
0780
0780
0780
0780
0780
0780
0780
0780
0780
0780
0780
0780
0780
0780
0780
0780
0B40
FFFC
ENDCHAR
STARTCHAR char6D
ENCODING 109
SWIDTH 1042 0
DWIDTH 50 0
BBX 46 24 2 0
VVECTOR 25 39
SWIDTH1 0 -1000
DWIDTH1 0 -48
BITMAP 
FF83C003C000
0B8C380C3800
07901E101E00
07A00F200F00
07600EC00F00
07C007800780
078007800780
078007800780
078007800780
078007800780
078007800780
078007800780
078007800780
078007800780
078007800780
078007800780
078007800780
078007800780
078007800780
078007800780
078007800780
078007800780
0B4007400740
FFFC07FC07FC
ENDCHAR
STARTCHAR char6E
ENCODING 110
SWIDTH 750 0
DWIDTH 36 0
BBX 32 24 2 0
VVECTOR 18 39
SWIDTH1 0 -1000
DWIDTH1 0 -48
BITMAP 
FF81F000
0B860E00
07880780
079003C0
07A003C0
074001E0
078001E0
078001E0
078001E0
078001E0
078001E0
078001E0
078001E0
078001E0
078001E0
078001E0
078001E0
078001E0
078001E0
078001E0
078001E0
078001E0
0B4001D0
FFF801FF
ENDCHAR
STARTCHAR char6F
ENCODING 111
SWIDTH 646 0
DWIDTH 31 0
BBX 25 24 3 0
VVECTOR 16 39
SWIDTH1 0 -1000
DWIDTH1 0 -48
BITMAP 
007F0000
0380E000
0E003800
1C001C00
3C001E00
38000E00
78000F00
78000F00
F8000F80
F8000F80
F8000F80
F8000F80
F8000F80
F8000F80
F8000F80
F8000F80
78000F00
78000F00
38000E00
3C001E00
1C001C00
0E003800
0380E000
007F0000
ENDCHAR
STARTCHAR char70
ENCODING 112
SWIDTH 688 0
DWIDTH 33 0
BBX 28 33 2 -9
VVECTOR 16 39
SWIDTH1 0 -1000
DWIDTH1 0 -48
BITMAP 
FF87E000
0B981C00
07A00F00
07400780
078003C0
078003C0
078001E0
078003E0
078001F0
078001F0
078001F0
078001F0
078001F0
078001F0
078001F0
078001F0
078003E0
078001E0
078003C0
078003C0
07C00780
07600F00
07981C00
0787E000
07800000
07800000
07800000
07800000
07800000
07800000
07800000
0B400000
FFFC0000
ENDCHAR
STARTCHAR char71
ENCODING 113
SWIDTH 667 0
DWIDTH 32 0
BBX 28 33 3 -9
VVECTOR 17 39
SWIDTH1 0 -1000
DWIDTH1 0 -48
BITMAP 
007E0200
03818600
0F004E00
1E003600
3C003E00
3C001E00
78001E00
7C001E00
F8001E00
F8001E00
F8001E00
F8001E00
F8001E00
F8001E00
F8001E00
F8001E00
7C001E00
78001E00
3C001E00
3C001E00
1E002E00
0F005E00
03819E00
007E1E00
00001E00
00001E00
00001E00
00001E00
00001E00
00001E00
00001E00
00002D00
0003FFF0
ENDCHAR
STARTCHAR char72
ENCODING 114
SWIDTH 542 0
DWIDTH 26 0
BBX 22 24 2 0
VVECTOR 13 39
SWIDTH1 0 -1000
DWIDTH1 0 -48
BITMAP 
FF81E0
0B8618
078804
079034
07A07C
074038
078000
078000
078000
078000
078000
078000
078000
078000
078000
078000
078000
078000
078000
078000
078000
078000
0B4000
FFFC00
ENDCHAR
STARTCHAR char73
ENCODING 115
SWIDTH 458 0
DWIDTH 22 0
BBX 18 24 2 0
VVECTOR 11 39
SWIDTH1 0 -1000
DWIDTH1 0 -48
BITMAP 
07F080
180C80
200280
400180
C00080
C00080
C00000
E00000
F80000
7F0000
3FE000
0FFC00
01FF00
003F80
000FC0
0003C0
0001C0
8000C0
8000C0
C000C0
E00080
B00100
8C0600
83F800
ENDCHAR
STARTCHAR char74
ENCODING 116
SWIDTH 458 0
DWIDTH 22 0
BBX 18 31 2 0
VVECTOR 11 39
SWIDTH1 0 -1000
DWIDTH1 0 -48
BITMAP 
004000
004000
004000
00C000
00C000
01C000
03C000
FFFFC0
03C000
03C000
03C000
03C000
03C000
03C000
03C000
03C000
03C000
03C000
03C000
03C000
03C000
03C000
03C000
03C000
03C000
03C040
03C040
03C040
01C080
00E100
003E00
ENDCHAR
STARTCHAR char75
ENCODING 117
SWIDTH 729 0
DWIDTH 35 0
BBX 31 24 2 0
VVECTOR 18 39
SWIDTH1 0 -1000
DWIDTH1 0 -48
BITMAP 
FF807FC0
0B8005C0
078003C0
078003C0
078003C0
078003C0
078003C0
078003C0
078003C0
078003C0
078003C0
078003C0
078003C0
078003C0
078003C0
078003C0
078003C0
078003C0
078003C0
038005C0
038009C0
01C011C0
00E061A0
001F81FE
ENDCHAR
STARTCHAR char76
ENCODING 118
SWIDTH 688 0
DWIDTH 33 0
BBX 31 23 1 0
VVECTOR 17 39
SWIDTH1 0 -1000
DWIDTH1 0 -48
BITMAP 
FFFC0FFE
0F4000E0
07800040
078000C0
03C00080
03C00180
01E00100
01E00300
00F00200
00F00600
00780400
00780C00
003C0800
003C1800
001E1000
001E3000
000F2000
000F6000
0007C000
0007C000
00038000
00038000
00010000
ENDCHAR
STARTCHAR char77
ENCODING 119
SWIDTH 1000 0
DWIDTH 48 0
BBX 46 24 1 0
VVECTOR 24 39
SWIDTH1 0 -1000
DWIDTH1 0 -48
BITMAP 
FFF87FFC1FFC
0FC00FC001C0
078007800080
03C007800180
03C003C00100
01E003C00300
01E003C00200
00F001E00600
00F001E00400
007803E00C00
007802F00800
003C06F01800
003C04781000
001E0C783000
001E083C2000
000F183C6000
000F101E4000
0007B01EC000
0007E00FC000
0003E00F8000
0003E00F8000
0001C0070000
0001C0070000
000080020000
ENDCHAR
STARTCHAR char78
ENCODING 120
SWIDTH 646 0
DWIDTH 31 0
BBX 29 24 1 0
VVECTOR 16 39
SWIDTH1 0 -1000
DWIDTH1 0 -48
BITMAP 
FFF87FE0
0F800E00
07C00400
03C00800
03E01800
01F01000
00F02000
00784000
003CC000
003E8000
001F0000
000F0000
000F8000
0017C000
0013E000
0021E000
0060F000
0040F800
00807C00
01803C00
01001E00
02001F00
07001780
7FE1FFF8
ENDCHAR
STARTCHAR char79
ENCODING 121
SWIDTH 688 0
DWIDTH 33 0
BBX 31 32 1 -8
VVECTOR 17 39
SWIDTH1 0 -1000
DWIDTH1 0 -48
BITMAP 
FFFC0FFE
0F4000A0
07800060
03C000C0
03C00080
01E00180
01E00100
00F00300
00F00200
00780600
00780400
003C0C00
003C0C00
001E0800
001E1800
000F1000
000F3000
0007A000
0007A000
0003E000
0003C000
0001C000
00018000
00010000
00030000
1C020000
3E060000
2C040000
200C0000
10080000
0C300000
03C00000
ENDCHAR
STARTCHAR char7A
ENCODING 122
SWIDTH 521 0
DWIDTH 25 0
BBX 21 24 2 0
VVECTOR 13 39
SWIDTH1 0 -1000
DWIDTH1 0 -48
BITMAP 
7FFFF8
7800F0
7001E0
6003C0
6007C0
400780
400F00
001F00
001E00
003C00
007800
00F800
00F000
01E000
03E000
03C000
078000
0F8008
0F0008
1E0018
3E0018
3C0038
780078
FFFFF8
ENDCHAR
STARTCHAR char7B
ENCODING 123
SWIDTH 375 0
DWIDTH 18 0
BBX 15 44 1 -8
VVECTOR 9 39
SWIDTH1 0 -1000
DWIDTH1 0 -48
BITMAP 
001E
0060
0080
0100
0300
0700
0700
0700
0700
0700
0700
0700
0700
0700
0700
0700
0700
0700
0600
0C00
1800
E000
1800
0C00
0600
0700
0700
0700
0700
0700
0700
0700
0700
0700
0700
0700
0700
0700
0700
0300
0100
0080
0060
001E
ENDCHAR
STARTCHAR char7C
ENCODING 124
SWIDTH 250 0
DWIDTH 12 0
BBX 3 44 4 -8
VVECTOR 6 39
SWIDTH1 0 -1000
DWIDTH1 0 -48
BITMAP 
E0
E0
E0
E0
E0
E0
E0
E0
E0
E0
E0
E0
E0
E0
E0
E0
E0
E0
E0
E0
E0
E0
E0
E0
E0
E0
E0
E0
E0
E0
E0
E0
E0
E0
E0
E0
E0
E0
E0
E0
E0
E0
E0
E0
ENDCHAR
STARTCHAR char7D
ENCODING 125
SWIDTH 375 0
DWIDTH 18 0
BBX 15 44 2 -8
VVECTOR 10 39
SWIDTH1 0 -1000
DWIDTH1 0 -48
BITMAP 
F000
0C00
0200
0100
0180
01C0
01C0
01C0
01C0
01C0
01C0
01C0
01C0
01C0
01C0
01C0
01C0
01C0
00C0
0060
0030
000E
0030
0060
00C0
01C0
01C0
01C0
01C0
01C0
01C0
01C0
01C0
01C0
01C0
01C0
01C0
01C0
01C0
0180
0100
0200
0C00
F000
ENDCHAR
STARTCHAR char7E
ENCODING 126
SWIDTH 604 0
DWIDTH 29 0
BBX 21 4 4 35
VVECTOR 15 39
SWIDTH1 0 -1000
DWIDTH1 0 -48
BITMAP 
0FC018
31F030
607C60
C01F80
ENDCHAR
STARTCHAR char80
ENCODING 128
SWIDTH 771 0
DWIDTH 37 0
BBX 35 39 1 0
VVECTOR 19 39
SWIDTH1 0 -1000
DWIDTH1 0 -48
BITMAP 
0038038000
007C07C000
007C07C000
0038038000
0000000000
0000000000
0000400000
0000E00000
0000E00000
0001F00000
0001F00000
0003780000
0003780000
00063C0000
00063C0000
000C1E0000
000C1E0000
00080E0000
00180F0000
00180F0000
0010070000
0030078000
0030078000
0020038000
006003C000
006003C000
004001C000
00BFFEE000
00C001E000
008000E000
018000F000
018000F000
0100007000
0300007800
0300007800
0200003800
0600003C00
0D00005E00
FFF007FFE0
ENDCHAR
STARTCHAR char81
ENCODING 129
SWIDTH 771 0
DWIDTH 37 0
BBX 35 38 1 0
VVECTOR 19 39
SWIDTH1 0 -1000
DWIDTH1 0 -48
BITMAP 
0001F00000
0002080000
0002080000
0002080000
0002080000
0001F00000
0000E00000
0000E00000
0001F00000
0001F00000
0003780000
0003780000
00063C0000
00063C0000
000C1E0000
000C1E0000
00080E0000
00180F0000
00180F0000
0010070000
0030078000
0030078000
0020038000
006003C000
006003C000
004001C000
00BFFEE000
00C001E000
008000E000
018000F000
018000F000
0100007000
0300007800
0300007800
0200003800
0600003C00
0D00005E00
FFF007FFE0
ENDCHAR
STARTCHAR char82
ENCODING 130
SWIDTH 708 0
DWIDTH 34 0
BBX 29 42 3 -9
VVECTOR 18 39
SWIDTH1 0 -1000
DWIDTH1 0 -48
BITMAP 
000FF810
00700710
01C001B0
038000B0
07000070
0E000030
1E000030
1C000010
3C000010
3C000010
78000000
78000000
78000000
F8000000
F8000000
F8000000
F8000000
F8000000
F8000000
F8000000
F8000000
78000000
78000000
78000008
3C000008
3C000008
1C000018
1E000010
0E000030
07000020
03800060
01C000C0
00700300
000FFC00
00020000
00040000
000FF000
00000C00
00000600
00000600
00080C00
0007F000
ENDCHAR
STARTCHAR char83
ENCODING 131
SWIDTH 729 0
DWIDTH 35 0
BBX 31 39 2 0
VVECTOR 18 39
SWIDTH1 0 -1000
DWIDTH1 0 -48
BITMAP 
00001E00
00003C00
00007000
0000C000
00000000
00000000
FFFFFFFC
05E001FC
03C0007C
03C0003C
03C0001C
03C0001C
03C0000C
03C0000C
03C00004
03C01004
03C01004
03C01000
03C03000
03C03000
03C05000
03FFF000
03C05000
03C03000
03C03000
03C01000
03C01000
03C01000
03C00002
03C00002
03C00002
03C00006
03C00006
03C0000E
03C0000E
03C0001E
03C0003E
05E000FE
FFFFFFFE
ENDCHAR
STARTCHAR char84
ENCODING 132
SWIDTH 896 0
DWIDTH 43 0
BBX 39 39 2 0
VVECTOR 22 39
SWIDTH1 0 -1000
DWIDTH1 0 -48
BITMAP 
000FC00600
0030F80C00
00603E1800
00C007E000
0000000000
0000000000
0000000000
FFC0007FFE
03C00003C0
03E0000180
03F0000180
02F8000180
037C000180
033E000180
031F000180
030F800180
0307800180
0307C00180
0303E00180
0301F00180
0300F80180
0300780180
03003C0180
03003E0180
03001F0180
03000F8180
030007C180
030003E180
030001E180
030000F180
030000F980
0300007D80
0300003E80
0300001F80
0300000F80
0300000780
0300000380
0780000180
FFFC000180
ENDCHAR
STARTCHAR char85
ENCODING 133
SWIDTH 812 0
DWIDTH 39 0
BBX 33 40 3 -1
VVECTOR 20 39
SWIDTH1 0 -1000
DWIDTH1 0 -48
BITMAP 
00E0038000
01F007C000
01F007C000
00E0038000
0000000000
0000000000
000FF80000
0070070000
01C001C000
038000E000
0700007000
0E00003800
1E00003C00
1C00001C00
3C00001E00
3C00001E00
7800000F00
7800000F00
F800000F80
7800000F00
F800000F80
F800000F80
F800000F80
F800000F80
F800000F80
F800000F80
7800000F00
F800000F80
7800000F00
7800000F00
3C00001E00
3C00001E00
1C00001C00
1E00003C00
0E00003800
0700007000
038000E000
01C001C000
0070070000
000FF80000
ENDCHAR
STARTCHAR char86
ENCODING 134
SWIDTH 875 0
DWIDTH 42 0
BBX 38 39 2 0
VVECTOR 21 39
SWIDTH1 0 -1000
DWIDTH1 0 -48
BITMAP 
001C007000
003E00F800
003E00F800
001C007000
0000000000
0000000000
0000000000
FFFF00FFFC
05A0000780
03C0000300
03C0000300
03C0000300
03C0000300
03C0000300
03C0000300
03C0000300
03C0000300
03C0000300
03C0000300
03C0000300
03C0000300
03C0000300
03C0000300
03C0000300
03C0000300
03C0000300
03C0000300
03C0000300
03C0000300
03C0000300
03C0000300
03C0000300
03C0000300
01E0000600
01E0000600
00F0000C00
0078001800
001E007000
0003FF8000
ENDCHAR
STARTCHAR char87
ENCODING 135
SWIDTH 646 0
DWIDTH 31 0
BBX 28 36 2 0
VVECTOR 16 39
SWIDTH1 0 -1000
DWIDTH1 0 -48
BITMAP 
0000F000
0001F000
0003E000
00078000
000E0000
00180000
00200000
00000000
00000000
00000000
00000000
00000000
00FF0000
0700E000
1C007000
18003800
34003800
3E003C00
1C003C00
00003C00
00003C00
00007C00
0003DC00
003C3C00
03C03C00
0F003C00
3E003C00
7C003C00
FC003C00
F8003C00
F8003C00
F8007C10
7C006C10
3C009C10
0F030E20
01FC03C0
ENDCHAR
STARTCHAR char88
ENCODING 136
SWIDTH 646 0
DWIDTH 31 0
BBX 28 36 2 0
VVECTOR 16 39
SWIDTH1 0 -1000
DWIDTH1 0 -48
BITMAP 
0F000000
0F800000
07C00000
01E00000
00700000
00180000
00040000
00000000
00000000
00000000
00000000
00000000
00FF0000
0700E000
1C007000
18003800
34003800
3E003C00
1C003C00
00003C00
00003C00
00007C00
0003DC00
003C3C00
03C03C00
0F003C00
3E003C00
7C003C00
FC003C00
F8003C00
F8003C00
F8007C10
7C006C10
3C009C10
0F030E20
01FC03C0
ENDCHAR
STARTCHAR char89
ENCODING 137
SWIDTH 646 0
DWIDTH 31 0
BBX 28 36 2 0
VVECTOR 16 39
SWIDTH1 0 -1000
DWIDTH1 0 -48
BITMAP 
00080000
001C0000
003E0000
00770000
00E38000
01C1C000
0380E000
00000000
00000000
00000000
00000000
00000000
00FF0000
0700E000
1C007000
18003800
34003800
3E003C00
1C003C00
00003C00
00003C00
00007C00
0003DC00
003C3C00
03C03C00
0F003C00
3E003C00
7C003C00
FC003C00
F8003C00
F8003C00
F8007C10
7C006C10
3C009C10
0F030E20
01FC03C0
ENDCHAR
STARTCHAR char8A
ENCODING 138
SWIDTH 646 0
DWIDTH 31 0
BBX 28 33 2 0
VVECTOR 16 39
SWIDTH1 0 -1000
DWIDTH1 0 -48
BITMAP 
0380E000
07C1F000
07C1F000
0380E000
00000000
00000000
00000000
00000000
00000000
00FF0000
0700E000
1C007000
18003800
34003800
3E003C00
1C003C00
00003C00
00003C00
00007C00
0003DC00
003C3C00
03C03C00
0F003C00
3E003C00
7C003C00
FC003C00
F8003C00
F8003C00
F8007C10
7C006C10
3C009C10
0F030E20
01FC03C0
ENDCHAR
STARTCHAR char8B
ENCODING 139
SWIDTH 646 0
DWIDTH 31 0
BBX 28 33 2 0
VVECTOR 16 39
SWIDTH1 0 -1000
DWIDTH1 0 -48
BITMAP 
03E00600
0C7C0C00
181F1800
3007E000
00000000
00000000
00000000
00000000
00000000
00FF0000
0700E000
1C007000
18003800
34003800
3E003C00
1C003C00
00003C00
00003C00
00007C00
0003DC00
003C3C00
03C03C00
0F003C00
3E003C00
7C003C00
FC003C00
F8003C00
F8003C00
F8007C10
7C006C10
3C009C10
0F030E20
01FC03C0
ENDCHAR
STARTCHAR char8C
ENCODING 140
SWIDTH 646 0
DWIDTH 31 0
BBX 28 36 2 0
VVECTOR 16 39
SWIDTH1 0 -1000
DWIDTH1 0 -48
BITMAP 
003C0000
00C30000
01818000
01818000
01818000
00C30000
003C0000
00000000
00000000
00000000
00000000
00000000
00FF0000
0700E000
1C007000
18003800
34003800
3E003C00
1C003C00
00003C00
00003C00
00007C00
0003DC00
003C3C00
03C03C00
0F003C00
3E003C00
7C003C00
FC003C00
F8003C00
F8003C00
F8007C10
7C006C10
3C009C10
0F030E20
01FC03C0
ENDCHAR
STARTCHAR char8D
ENCODING 141
SWIDTH 542 0
DWIDTH 26 0
BBX 21 33 3 -9
VVECTOR 14 39
SWIDTH1 0 -1000
DWIDTH1 0 -48
BITMAP 
007F00
0380C0
0F0020
1E0010
3C0068
3C00F8
780070
780000
F80000
F80000
F80000
F80000
F80000
F80000
F80000
F80000
780000
780000
3C0000
3C0008
1E0010
0F0020
0380C0
007F00
004000
008000
010000
03FC00
000300
000180
000180
020300
01FC00
ENDCHAR
STARTCHAR char8E
ENCODING 142
SWIDTH 583 0
DWIDTH 28 0
BBX 23 36 3 0
VVECTOR 15 39
SWIDTH1 0 -1000
DWIDTH1 0 -48
BITMAP 
0000F0
0001F0
0003E0
000780
000E00
001800
002000
000000
000000
000000
000000
000000
007E00
038180
0E00E0
1C0070
3C0038
38003C
78001C
78001E
F8001E
F8001E
F8001E
F7FFFE
F80000
F80000
F80000
F80000
780000
780000
380000
3C0004
1C0008
0E0010
038060
007F80
ENDCHAR
STARTCHAR char8F
ENCODING 143
SWIDTH 583 0
DWIDTH 28 0
BBX 23 36 3 0
VVECTOR 15 39
SWIDTH1 0 -1000
DWIDTH1 0 -48
BITMAP 
078000
07C000
03E000
00F000
003800
000C00
000200
000000
000000
000000
000000
000000
007E00
038180
0E00E0
1C0070
3C0038
38003C
78001C
78001E
F8001E
F8001E
F8001E
F7FFFE
F80000
F80000
F80000
F80000
780000
780000
380000
3C0004
1C0008
0E0010
038060
007F80
ENDCHAR
STARTCHAR char90
ENCODING 144
SWIDTH 583 0
DWIDTH 28 0
BBX 23 36 3 0
VVECTOR 15 39
SWIDTH1 0 -1000
DWIDTH1 0 -48
BITMAP 
000800
001C00
003E00
007700
00E380
01C1C0
0380E0
000000
000000
000000
000000
000000
007E00
038180
0E00E0
1C0070
3C0038
38003C
78001C
78001E
F8001E
F8001E
F8001E
F7FFFE
F80000
F80000
F80000
F80000
780000
780000
380000
3C0004
1C0008
0E0010
038060
007F80
ENDCHAR
STARTCHAR char91
ENCODING 145
SWIDTH 583 0
DWIDTH 28 0
BBX 23 33 3 0
VVECTOR 15 39
SWIDTH1 0 -1000
DWIDTH1 0 -48
BITMAP 
0380E0
07C1F0
07C1F0
0380E0
000000
000000
000000
000000
000000
007E00
038180
0E00E0
1C0070
3C0038
38003C
78001C
78001E
F8001E
F8001E
F8001E
F7FFFE
F80000
F80000
F80000
F80000
780000
780000
380000
3C0004
1C0008
0E0010
038060
007F80
ENDCHAR
STARTCHAR char92
ENCODING 146
SWIDTH 375 0
DWIDTH 18 0
BBX 14 36 2 0
VVECTOR 9 39
SWIDTH1 0 -1000
DWIDTH1 0 -48
BITMAP 
00F0
01F0
03E0
0780
0E00
1800
2000
0000
0000
0000
0000
0000
FF80
0B80
0780
0780
0780
0780
0780
0780
0780
0780
0780
0780
0780
0780
0780
0780
0780
0780
0780
0780
0780
0780
0B40
FFFC
ENDCHAR
STARTCHAR char93
ENCODING 147
SWIDTH 375 0
DWIDTH 18 0
BBX 14 36 2 0
VVECTOR 9 39
SWIDTH1 0 -1000
DWIDTH1 0 -48
BITMAP 
F000
F800
7C00
1E00
0700
0180
0040
0000
0000
0000
0000
0000
FF80
0B80
0780
0780
0780
0780
0780
0780
0780
0780
0780
0780
0780
0780
0780
0780
0780
0780
0780
0780
0780
0780
0B40
FFFC
ENDCHAR
STARTCHAR char94
ENCODING 148
SWIDTH 375 0
DWIDTH 18 0
BBX 14 36 2 0
VVECTOR 9 39
SWIDTH1 0 -1000
DWIDTH1 0 -48
BITMAP 
0200
0700
0F80
1DC0
38E0
7070
E038
0000
0000
0000
0000
0000
FF80
0B80
0780
0780
0780
0780
0780
0780
0780
0780
0780
0780
0780
0780
0780
0780
0780
0780
0780
0780
0780
0780
0B40
FFFC
ENDCHAR
STARTCHAR char95
ENCODING 149
SWIDTH 375 0
DWIDTH 18 0
BBX 15 33 1 0
VVECTOR 9 39
SWIDTH1 0 -1000
DWIDTH1 0 -48
BITMAP 
701C
F83E
F83E
701C
0000
0000
0000
0000
0000
7FC0
05C0
03C0
03C0
03C0
03C0
03C0
03C0
03C0
03C0
03C0
03C0
03C0
03C0
03C0
03C0
03C0
03C0
03C0
03C0
03C0
03C0
05A0
7FFE
ENDCHAR
STARTCHAR char96
ENCODING 150
SWIDTH 750 0
DWIDTH 36 0
BBX 32 33 2 0
VVECTOR 18 39
SWIDTH1 0 -1000
DWIDTH1 0 -48
BITMAP 
007E00C0
018F8180
0303E300
0600FC00
00000000
00000000
00000000
00000000
00000000
FF81F000
0B860E00
07880780
079003C0
07A003C0
074001E0
078001E0
078001E0
078001E0
078001E0
078001E0
078001E0
078001E0
078001E0
078001E0
078001E0
078001E0
078001E0
078001E0
078001E0
078001E0
078001E0
0B4001D0
FFF801FF
ENDCHAR
STARTCHAR char97
ENCODING 151
SWIDTH 646 0
DWIDTH 31 0
BBX 25 36 3 0
VVECTOR 16 39
SWIDTH1 0 -1000
DWIDTH1 0 -48
BITMAP 
00007800
0000F800
0001F000
0003C000
00070000
000C0000
00100000
00000000
00000000
00000000
00000000
00000000
007F0000
0380E000
0E003800
1C001C00
3C001E00
38000E00
78000F00
78000F00
F8000F80
F8000F80
F8000F80
F8000F80
F8000F80
F8000F80
F8000F80
F8000F80
78000F00
78000F00
38000E00
3C001E00
1C001C00
0E003800
0380E000
007F0000
ENDCHAR
STARTCHAR char98
ENCODING 152
SWIDTH 646 0
DWIDTH 31 0
BBX 25 36 3 0
VVECTOR 16 39
SWIDTH1 0 -1000
DWIDTH1 0 -48
BITMAP 
0F000000
0F800000
07C00000
01E00000
00700000
00180000
00040000
00000000
00000000
00000000
00000000
00000000
007F0000
0380E000
0E003800
1C001C00
3C001E00
38000E00
78000F00
78000F00
F8000F80
F8000F80
F8000F80
F8000F80
F8000F80
F8000F80
F8000F80
F8000F80
78000F00
78000F00
38000E00
3C001E00
1C001C00
0E003800
0380E000
007F0000
ENDCHAR
STARTCHAR char99
ENCODING 153
SWIDTH 646 0
DWIDTH 31 0
BBX 25 36 3 0
VVECTOR 16 39
SWIDTH1 0 -1000
DWIDTH1 0 -48
BITMAP 
00080000
001C0000
003E0000
00770000
00E38000
01C1C000
0380E000
00000000
00000000
00000000
00000000
00000000
007F0000
0380E000
0E003800
1C001C00
3C001E00
38000E00
78000F00
78000F00
F8000F80
F8000F80
F8000F80
F8000F80
F8000F80
F8000F80
F8000F80
F8000F80
78000F00
78000F00
38000E00
3C001E00
1C001C00
0E003800
0380E000
007F0000
ENDCHAR
STARTCHAR char9A
ENCODING 154
SWIDTH 646 0
DWIDTH 31 0
BBX 25 33 3 0
VVECTOR 16 39
SWIDTH1 0 -1000
DWIDTH1 0 -48
BITMAP 
0380E000
07C1F000
07C1F000
0380E000
00000000
00000000
00000000
00000000
00000000
007F0000
0380E000
0E003800
1C001C00
3C001E00
38000E00
78000F00
78000F00
F8000F80
F8000F80
F8000F80
F8000F80
F8000F80
F8000F80
F8000F80
F8000F80
78000F00
78000F00
38000E00
3C001E00
1C001C00
0E003800
0380E000
007F0000
ENDCHAR
STARTCHAR char9B
ENCODING 155
SWIDTH 646 0
DWIDTH 31 0
BBX 25 33 3 0
VVECTOR 16 39
SWIDTH1 0 -1000
DWIDTH1 0 -48
BITMAP 
01F80300
063E0600
0C0F8C00
1803F000
00000000
00000000
00000000
00000000
00000000
007F0000
0380E000
0E003800
1C001C00
3C001E00
38000E00
78000F00
78000F00
F8000F80
F8000F80
F8000F80
F8000F80
F8000F80
F8000F80
F8000F80
F8000F80
78000F00
78000F00
38000E00
3C001E00
1C001C00
0E003800
0380E000
007F0000
ENDCHAR
STARTCHAR char9C
ENCODING 156
SWIDTH 729 0
DWIDTH 35 0
BBX 31 36 2 0
VVECTOR 18 39
SWIDTH1 0 -1000
DWIDTH1 0 -48
BITMAP 
00001E00
00003E00
00007C00
0000F000
0001C000
00030000
00040000
00000000
00000000
00000000
00000000
00000000
FF807FC0
0B8005C0
078003C0
078003C0
078003C0
078003C0
078003C0
078003C0
078003C0
078003C0
078003C0
078003C0
078003C0
078003C0
078003C0
078003C0
078003C0
078003C0
078003C0
038005C0
038009C0
01C011C0
00E061A0
001F81FE
ENDCHAR
STARTCHAR char9D
ENCODING 157
SWIDTH 729 0
DWIDTH 35 0
BBX 31 36 2 0
VVECTOR 18 39
SWIDTH1 0 -1000
DWIDTH1 0 -48
BITMAP 
03C00000
03E00000
01F00000
00780000
001C0000
00060000
00010000
00000000
00000000
00000000
00000000
00000000
FF807FC0
0B8005C0
078003C0
078003C0
078003C0
078003C0
078003C0
078003C0
078003C0
078003C0
078003C0
078003C0
078003C0
078003C0
078003C0
078003C0
078003C0
078003C0
078003C0
038005C0
038009C0
01C011C0
00E061A0
001F81FE
ENDCHAR
STARTCHAR char9E
ENCODING 158
SWIDTH 729 0
DWIDTH 35 0
BBX 31 36 2 0
VVECTOR 18 39
SWIDTH1 0 -1000
DWIDTH1 0 -48
BITMAP 
00010000
00038000
0007C000
000EE000
001C7000
00383800
00701C00
00000000
00000000
00000000
00000000
00000000
FF807FC0
0B8005C0
078003C0
078003C0
078003C0
078003C0
078003C0
078003C0
078003C0
078003C0
078003C0
078003C0
078003C0
078003C0
078003C0
078003C0
078003C0
078003C0
078003C0
038005C0
038009C0
01C011C0
00E061A0
001F81FE
ENDCHAR
STARTCHAR char9F
ENCODING 159
SWIDTH 729 0
DWIDTH 35 0
BBX 31 33 2 0
VVECTOR 18 39
SWIDTH1 0 -1000
DWIDTH1 0 -48
BITMAP 
00E01C00
01F03E00
01F03E00
00E01C00
00000000
00000000
00000000
00000000
00000000
FF807FC0
0B8005C0
078003C0
078003C0
078003C0
078003C0
078003C0
078003C0
078003C0
078003C0
078003C0
078003C0
078003C0
078003C0
078003C0
078003C0
078003C0
078003C0
078003C0
038005C0
038009C0
01C011C0
00E061A0
001F81FE
ENDCHAR
STARTCHAR charA0
ENCODING 160
SWIDTH 604 0
DWIDTH 29 0
BBX 21 36 4 -2
VVECTOR 15 39
SWIDTH1 0 -1000
DWIDTH1 0 -48
BITMAP 
002000
007000
007000
007000
007000
007000
007000
007000
807008
807008
807008
C07018
E02038
DFFFD8
E02038
C07018
807008
807008
807008
007000
007000
007000
007000
007000
007000
007000
007000
007000
007000
007000
007000
007000
007000
002000
002000
002000
ENDCHAR
STARTCHAR charA1
ENCODING 161
SWIDTH 375 0
DWIDTH 18 0
BBX 14 12 2 21
VVECTOR 9 39
SWIDTH1 0 -1000
DWIDTH1 0 -48
BITMAP 
0FC0
3030
6018
E01C
C00C
C00C
C00C
C00C
E01C
6018
3030
0FC0
ENDCHAR
STARTCHAR charA2
ENCODING 162
SWIDTH 604 0
DWIDTH 29 0
BBX 22 33 3 1
VVECTOR 14 39
SWIDTH1 0 -1000
DWIDTH1 0 -48
BITMAP 
000800
000800
000800
000800
000800
007780
038860
0F0810
1E0808
3C0824
3C087C
780838
780800
F80800
F80800
F80800
F80800
F80800
F80800
F80800
780800
780800
3C0804
3C0808
1E0810
0F0820
0388C0
007700
000800
000800
000800
000800
000800
ENDCHAR
STARTCHAR charA3
ENCODING 163
SWIDTH 604 0
DWIDTH 29 0
BBX 22 33 4 0
VVECTOR 15 39
SWIDTH1 0 -1000
DWIDTH1 0 -48
BITMAP 
00F800
030600
040100
080080
180680
180F80
1C0700
1C0000
1E0000
0E0000
0F0000
078000
078000
03C000
03C000
FDFFE0
00E000
00F000
007800
007800
003C00
001C00
001E00
000E00
000700
000700
1F0300
70C300
E02200
E01400
E00804
703618
1FC1E0
ENDCHAR
STARTCHAR charA4
ENCODING 164
SWIDTH 604 0
DWIDTH 29 0
BBX 19 33 5 0
VVECTOR 15 39
SWIDTH1 0 -1000
DWIDTH1 0 -48
BITMAP 
03F800
0C0600
100100
200080
600480
600F80
700700
7C0000
3F0000
0FC000
03F000
0CFC00
303F00
600F80
C003C0
C001E0
E000E0
F00060
7C0060
3F00C0
0FC180
03F600
00FC00
003F00
000F80
0003C0
1C01C0
3E00C0
2400C0
200080
100100
0C0600
03F800
ENDCHAR
STARTCHAR charA5
ENCODING 165
SWIDTH 375 0
DWIDTH 18 0
BBX 10 9 4 14
VVECTOR 9 39
SWIDTH1 0 -1000
DWIDTH1 0 -48
BITMAP 
1E00
7F80
FFC0
FFC0
FFC0
FFC0
FFC0
7F80
1E00
ENDCHAR
STARTCHAR charA6
ENCODING 166
SWIDTH 604 0
DWIDTH 29 0
BBX 25 33 2 0
VVECTOR 15 39
SWIDTH1 0 -1000
DWIDTH1 0 -48
BITMAP 
07F87F80
1C386800
38387000
78387000
70387000
F0387000
F0387000
F0387000
F0387000
F0387000
F0387000
F0387000
70387000
78387000
38387000
1C387000
07D87000
00387000
00387000
00387000
00387000
00387000
00387000
00387000
00387000
00387000
00387000
00387000
00387000
00387000
00387000
00387000
00387000
ENDCHAR
STARTCHAR charA7
ENCODING 167
SWIDTH 688 0
DWIDTH 33 0
BBX 29 33 2 0
VVECTOR 17 39
SWIDTH1 0 -1000
DWIDTH1 0 -48
BITMAP 
0007C000
00383800
00E00E00
01C00700
03C00300
03800380
07800380
07800380
07800700
07800700
07800E00
07801800
07806000
07808000
07810000
07830000
07838000
0781E000
0780FC00
07803F00
07800FC0
078003E0
078000F0
07800078
07800038
07800018
07840018
07840018
07860018
07860010
07870020
0F85C0C0
FF843F00
ENDCHAR
STARTCHAR charA8
ENCODING 168
SWIDTH 833 0
DWIDTH 40 0
BBX 32 27 4 3
VVECTOR 20 39
SWIDTH1 0 -1000
DWIDTH1 0 -48
BITMAP 
007FFE00
01800180
06000060
0C000030
18000018
3000000C
307FE00C
7008100E
7008080E
E0080C07
E0080C07
E0080807
E0083007
E00FC007
E0083007
E0080807
E0080C07
E0080C07
7008040E
707F030E
3000000C
3000000C
18000018
0C000030
06000060
01800180
007FFE00
ENDCHAR
STARTCHAR charA9
ENCODING 169
SWIDTH 833 0
DWIDTH 40 0
BBX 32 26 4 4
VVECTOR 20 39
SWIDTH1 0 -1000
DWIDTH1 0 -48
BITMAP 
007FFE00
01800180
06000060
0C000030
18000018
3000000C
3003E00C
700C100E
7018080E
E0101807
E0300007
E0300007
E0300007
E0300007
E0300007
E0300007
E0100807
7018080E
700C300E
3003C00C
3000000C
18000018
0C000030
06000060
01800180
007FFE00
ENDCHAR
STARTCHAR charAA
ENCODING 170
SWIDTH 604 0
DWIDTH 29 0
BBX 22 8 3 25
VVECTOR 14 39
SWIDTH1 0 -1000
DWIDTH1 0 -48
BITMAP 
FFF004
04180C
041414
041224
041144
041084
041004
041004
ENDCHAR
STARTCHAR charAB
ENCODING 171
SWIDTH 604 0
DWIDTH 29 0
BBX 10 7 10 32
VVECTOR 15 39
SWIDTH1 0 -1000
DWIDTH1 0 -48
BITMAP 
03C0
07C0
0F80
1E00
3800
6000
8000
ENDCHAR
STARTCHAR charAC
ENCODING 172
SWIDTH 604 0
DWIDTH 29 0
BBX 17 4 6 35
VVECTOR 15 39
SWIDTH1 0 -1000
DWIDTH1 0 -48
BITMAP 
700700
F80F80
F80F80
700700
ENDCHAR
STARTCHAR charAD
ENCODING 173
SWIDTH 833 0
DWIDTH 40 0
BBX 29 20 5 7
VVECTOR 20 39
SWIDTH1 0 -1000
DWIDTH1 0 -48
BITMAP 
00000180
00000300
00000600
00000C00
00001800
FFFFF7F8
FFFFBFF8
00006000
0000C000
00018000
00030000
00060000
000C0000
FFF7FFF8
FFBFFFF8
00600000
00C00000
01800000
03000000
06000000
ENDCHAR
STARTCHAR charAE
ENCODING 174
SWIDTH 1062 0
DWIDTH 51 0
BBX 48 33 1 0
VVECTOR 25 39
SWIDTH1 0 -1000
DWIDTH1 0 -48
BITMAP 
00007FFFFFFE
0000067400FE
00000478003E
00000C78001E
00000878000E
00001878000E
000010780006
000030780006
000020780002
000060780402
000040780402
0000C0780400
000080780C00
000180780C00
000100781400
0003006FFC00
0002FFF81400
000600780C00
000400780C00
000C00780400
000800780400
001800780400
001000780001
003000780001
002000780001
006000780003
004000780003
00C000780007
008000780007
01800078000F
03000078001F
0F8000B4007F
FFF80FFFFFFF
ENDCHAR
STARTCHAR charAF
ENCODING 175
SWIDTH 812 0
DWIDTH 39 0
BBX 33 34 3 -1
VVECTOR 20 39
SWIDTH1 0 -1000
DWIDTH1 0 -48
BITMAP 
000FF80000
0070070080
01C001C100
038000E200
0700007400
0E00003800
1E00001C00
1C00003C00
3C00005E00
3C00009E00
7800010F00
7800020F00
F800040F80
7800080F00
F800100F80
F800200F80
F800400F80
F800800F80
F801000F80
F802000F80
7804000F00
F808000F80
7810000F00
7820000F00
3C40001E00
3C80001E00
1D00001C00
1A00003C00
0E00003800
1700007000
238000E000
41C001C000
8070070000
000FF80000
ENDCHAR
STARTCHAR charB0
ENCODING 176
SWIDTH 833 0
DWIDTH 40 0
BBX 35 13 2 11
VVECTOR 20 39
SWIDTH1 0 -1000
DWIDTH1 0 -48
BITMAP 
07E000FC00
181803C300
20040F0080
40023E0040
80017C0020
8000F80020
8001F00020
8003E00020
8007D00020
400F880040
201F040080
187C030300
07F000FC00
ENDCHAR
STARTCHAR charB1
ENCODING 177
SWIDTH 833 0
DWIDTH 40 0
BBX 29 28 5 0
VVECTOR 20 39
SWIDTH1 0 -1000
DWIDTH1 0 -48
BITMAP 
00070000
00070000
00070000
00070000
00070000
00070000
00070000
00070000
00070000
00070000
FFFAFFF8
FFFAFFF8
00070000
00070000
00070000
00070000
00070000
00070000
00070000
00070000
00070000
00070000
00000000
00000000
00000000
00000000
FFFFFFF8
FFFFFFF8
ENDCHAR
STARTCHAR charB2
ENCODING 178
SWIDTH 604 0
DWIDTH 29 0
BBX 21 28 4 0
VVECTOR 15 39
SWIDTH1 0 -1000
DWIDTH1 0 -48
BITMAP 
000E00
001C00
003800
007000
00E000
01C000
038000
070000
0E0000
1C0000
380000
1C0000
0E0000
070000
038000
01C000
00E000
007000
003800
001C00
000E00
000000
000000
000000
000000
000000
FFFFF8
FFFFF8
ENDCHAR
STARTCHAR charB3
ENCODING 179
SWIDTH 604 0
DWIDTH 29 0
BBX 21 28 4 0
VVECTOR 15 39
SWIDTH1 0 -1000
DWIDTH1 0 -48
BITMAP 
038000
01C000
00E000
007000
003800
001C00
000E00
000700
000380
0001C0
0000E0
0001C0
000380
000700
000E00
001C00
003800
007000
00E000
01C000
038000
000000
000000
000000
000000
000000
FFFFF8
FFFFF8
ENDCHAR
STARTCHAR charB4
ENCODING 180
SWIDTH 812 0
DWIDTH 39 0
BBX 35 33 2 0
VVECTOR 20 39
SWIDTH1 0 -1000
DWIDTH1 0 -48
BITMAP 
FFFC03FFE0
0F40002E00
0780001400
03C0001800
01E0001000
01E0003000
00F0002000
0078004000
007800C000
003C008000
001E010000
07FE03FE00
000F020000
0007840000
00078C0000
0003C80000
0001D80000
0001F00000
07FF6FFE00
0000F00000
0000F00000
0000F00000
0000F00000
0000F00000
0000F00000
0000F00000
0000F00000
0000F00000
0000F00000
0000F00000
0000F00000
0001680000
003FFFC000
ENDCHAR
STARTCHAR charB5
ENCODING 181
SWIDTH 646 0
DWIDTH 31 0
BBX 28 29 1 -5
VVECTOR 15 39
SWIDTH1 0 -1000
DWIDTH1 0 -48
BITMAP 
3C001E00
3C001E00
3C001E00
3C001E00
3C001E00
3C001E00
3C001E00
3C001E00
3C001E00
3C001E00
3C001E00
3C001E00
3C001E00
3C001E00
3C001E00
3C001E00
3C001E00
3C001E00
3C001E00
3C003E00
3E003600
3B004E00
39818710
387E01E0
38000000
38000000
30000000
60000000
C0000000
ENDCHAR
STARTCHAR charB6
ENCODING 182
SWIDTH 625 0
DWIDTH 30 0
BBX 24 33 3 0
VVECTOR 15 39
SWIDTH1 0 -1000
DWIDTH1 0 -48
BITMAP 
00FE00
030180
0680E0
07C070
038038
000038
00001C
00001C
00000E
00000E
00FF07
0300C7
0E0077
1C003B
38001F
38001F
70000F
70000F
F0000F
F0000F
F0000F
F0000F
F0000F
F0000F
F0000E
70000E
78001E
38001C
3C003C
1C0038
0E0070
0381C0
007E00
ENDCHAR
STARTCHAR charB7
ENCODING 183
SWIDTH 833 0
DWIDTH 40 0
BBX 32 44 4 -8
VVECTOR 20 39
SWIDTH1 0 -1000
DWIDTH1 0 -48
BITMAP 
FFFFFFF0
7C000018
3E00000C
1F000006
0F800003
07C00000
03E00000
01F00000
00F80000
007C0000
003E0000
001F0000
000F8000
0007C000
0003E000
0001F000
0000F800
00007C00
00003E00
00001F00
00000F80
00000700
00000600
00000C00
00001800
00003000
00006000
0000C000
00018000
00030000
00060000
000C0000
00180000
00300000
00600000
00C00000
01800000
03000000
06000000
0C000003
18000006
3FFFFFFC
7FFFFFF8
FFFFFFF0
ENDCHAR
STARTCHAR charB8
ENCODING 184
SWIDTH 812 0
DWIDTH 39 0
BBX 33 33 3 0
VVECTOR 20 39
SWIDTH1 0 -1000
DWIDTH1 0 -48
BITMAP 
FFFFFFFF80
0FC001F800
078000F000
078000F000
078000F000
078000F000
078000F000
078000F000
078000F000
078000F000
078000F000
078000F000
078000F000
078000F000
078000F000
078000F000
078000F000
078000F000
078000F000
078000F000
078000F000
078000F000
078000F000
078000F000
078000F000
078000F000
078000F000
078000F000
078000F000
078000F000
078000F000
0FC001F800
FFFC1FFF80
ENDCHAR
STARTCHAR charB9
ENCODING 185
SWIDTH 833 0
DWIDTH 40 0
BBX 32 24 4 0
VVECTOR 20 39
SWIDTH1 0 -1000
DWIDTH1 0 -48
BITMAP 
00000003
3FFFFFFE
7FDFFDFC
C0300300
00600600
00E00E00
01E01E00
01E01E00
01E01E00
01E01E00
01E01E00
01E01E00
01E01E00
01E01E00
01E01E00
01E01E00
01E01E00
01E01E00
01E01E00
01E01E00
01C01C00
01801800
03003000
04004000
ENDCHAR
STARTCHAR charBA
ENCODING 186
SWIDTH 604 0
DWIDTH 29 0
BBX 24 44 2 -8
VVECTOR 14 39
SWIDTH1 0 -1000
DWIDTH1 0 -48
BITMAP 
0000F8
000306
000603
000C0D
001C0E
001C00
003C00
003C00
003C00
003C00
003C00
003C00
003C00
003C00
003C00
003C00
003C00
003C00
003C00
003C00
003C00
003C00
003C00
003C00
003C00
003C00
003C00
003C00
003C00
003C00
003C00
003C00
003C00
003C00
003C00
003C00
003C00
003C00
003800
703800
B03000
C06000
60C000
1F0000
ENDCHAR
STARTCHAR charBB
ENCODING 187
SWIDTH 646 0
DWIDTH 31 0
BBX 28 33 2 0
VVECTOR 16 39
SWIDTH1 0 -1000
DWIDTH1 0 -48
BITMAP 
00FF0000
0700E000
1C007000
18003800
34003800
3E003C00
1C003C00
00003C00
00003C00
00007C00
0003DC00
003C3C00
03C03C00
0F003C00
3E003C00
7C003C00
FC003C00
F8003C00
F8003C00
F8007C10
7C006C10
3C009C10
0F030E20
01FC03C0
00000000
00000000
00000000
00000000
00000000
00000000
00000000
7FFFFFC0
7FFFFFC0
ENDCHAR
STARTCHAR charBC
ENCODING 188
SWIDTH 646 0
DWIDTH 31 0
BBX 25 33 3 0
VVECTOR 16 39
SWIDTH1 0 -1000
DWIDTH1 0 -48
BITMAP 
007F0000
0380E000
0E003800
1C001C00
3C001E00
38000E00
78000F00
78000F00
F8000F80
F8000F80
F8000F80
F8000F80
F8000F80
F8000F80
F8000F80
F8000F80
78000F00
78000F00
38000E00
3C001E00
1C001C00
0E003800
0380E000
007F0000
00000000
00000000
00000000
00000000
00000000
00000000
00000000
3FFFFF00
3FFFFF00
ENDCHAR
STARTCHAR charBD
ENCODING 189
SWIDTH 812 0
DWIDTH 39 0
BBX 31 33 4 0
VVECTOR 20 39
SWIDTH1 0 -1000
DWIDTH1 0 -48
BITMAP 
001FF000
00E00E00
03800380
0F0001E0
1E0000F0
3C000078
7C00007C
7800003C
F800003E
F000001E
F000001E
F000001E
F000001E
F000001E
F000001E
F000001E
F000001E
F000001E
7800003C
7800003C
38000038
3C000078
1C000070
1E0000F0
0E0000E0
070001C0
03000180
01800300
00C00600
40600C04
30301818
17D837D0
0FF83FE0
ENDCHAR
STARTCHAR charBE
ENCODING 190
SWIDTH 896 0
DWIDTH 43 0
BBX 39 24 2 0
VVECTOR 22 39
SWIDTH1 0 -1000
DWIDTH1 0 -48
BITMAP 
00FE003E00
0701C0C180
1C00630060
1800360030
34003C0038
3E003C001C
1C003C001C
00003C001E
00003C001E
00005C001E
0007BC001E
00383BFFFE
03C03C0000
0F003C0000
3E003C0000
7C003C0000
FC003C0000
F8003C0000
F8003C0000
F8003C000C
7C004E0018
3C00870030
0F0301C0C0
03FC003F00
ENDCHAR
STARTCHAR charBF
ENCODING 191
SWIDTH 646 0
DWIDTH 31 0
BBX 25 25 3 0
VVECTOR 16 39
SWIDTH1 0 -1000
DWIDTH1 0 -48
BITMAP 
00000100
007F0200
0380E400
0E003800
1C001C00
3C001E00
38002E00
78004F00
78008F00
F8010F80
F8020F80
F8040F80
F8080F80
F8100F80
F8200F80
F8400F80
F8800F80
79000F00
7A000F00
3C000E00
3C001E00
1C001C00
2E003800
4380E000
807F0000
ENDCHAR
STARTCHAR charC0
ENCODING 192
SWIDTH 604 0
DWIDTH 29 0
BBX 20 33 5 0
VVECTOR 15 39
SWIDTH1 0 -1000
DWIDTH1 0 -48
BITMAP 
003C00
007E00
007E00
003C00
000000
000000
000000
000000
000800
000800
000800
000800
001000
003000
006000
00C000
01C000
038000
070000
1E0000
3C0000
780000
780000
F00000
F001E0
F003B0
F001D0
F00010
780010
780020
3C0040
0E0180
01FE00
ENDCHAR
STARTCHAR charC1
ENCODING 193
SWIDTH 375 0
DWIDTH 18 0
BBX 5 33 7 0
VVECTOR 10 39
SWIDTH1 0 -1000
DWIDTH1 0 -48
BITMAP 
70
F8
F8
70
00
00
00
00
00
20
20
20
20
20
70
70
70
70
70
F8
F8
F8
F8
F8
F8
F8
F8
F8
F8
F8
F8
F8
70
ENDCHAR
STARTCHAR charC2
ENCODING 194
SWIDTH 833 0
DWIDTH 40 0
BBX 30 7 5 11
VVECTOR 20 39
SWIDTH1 0 -1000
DWIDTH1 0 -48
BITMAP 
FFFFFFFC
FFFFFFFC
0000001C
0000001C
0000001C
0000001C
0000001C
ENDCHAR
STARTCHAR charC3
ENCODING 195
SWIDTH 833 0
DWIDTH 40 0
BBX 38 44 1 -8
VVECTOR 20 39
SWIDTH1 0 -1000
DWIDTH1 0 -48
BITMAP 
0000007FFC
0000007FFC
000000C000
000000C000
000000C000
0000018000
0000018000
0000018000
0000030000
0000030000
0000030000
0000060000
0000060000
0000060000
00000C0000
00000C0000
00000C0000
0000180000
0000180000
0000180000
0000300000
0000300000
0000300000
0000600000
0000600000
0400600000
0C00C00000
1E00C00000
1E00C00000
3701800000
2701800000
6781800000
4383000000
C3C3000000
81C3000000
01E6000000
00E6000000
00F6000000
006C000000
007C000000
003C000000
0038000000
0018000000
0018000000
ENDCHAR
STARTCHAR charC4
ENCODING 196
SWIDTH 604 0
DWIDTH 29 0
BBX 24 40 2 -7
VVECTOR 14 39
SWIDTH1 0 -1000
DWIDTH1 0 -48
BITMAP 
0000F8
000306
000603
000C0D
001C0E
001C00
003C00
003C00
003C00
003C00
003C00
003C00
003C00
07FFE0
003C00
003C00
003C00
003C00
003C00
003C00
003C00
003C00
003C00
003C00
003C00
003C00
003C00
003C00
003C00
003C00
003C00
003C00
003C00
003C00
003800
703800
B03000
C06000
60C000
1F0000
ENDCHAR
STARTCHAR charC5
ENCODING 197
SWIDTH 833 0
DWIDTH 40 0
BBX 29 13 5 11
VVECTOR 20 39
SWIDTH1 0 -1000
DWIDTH1 0 -48
BITMAP 
07F80018
183E0030
300F0060
6007C0C0
C001FF00
00000000
00000000
00000000
07F80018
183E0030
300F0060
6007C0C0
C001FF00
ENDCHAR
STARTCHAR charC6
ENCODING 198
SWIDTH 833 0
DWIDTH 40 0
BBX 35 34 2 0
VVECTOR 20 39
SWIDTH1 0 -1000
DWIDTH1 0 -48
BITMAP 
0000400000
0000E00000
0000E00000
0001F00000
0001F00000
0003780000
0002380000
00063C0000
00041C0000
000C1E0000
00080E0000
00180F0000
0010070000
0030078000
0020038000
006003C000
004001C000
00C001E000
008000E000
018000F000
0100007000
0300007800
0200003800
0600003C00
0400001C00
0C00001E00
0800000E00
1800000F00
1000000700
3000000780
2000000380
60000003C0
5FFFFFFDC0
FFFFFFFFE0
ENDCHAR
STARTCHAR charC7
ENCODING 199
SWIDTH 604 0
DWIDTH 29 0
BBX 24 21 2 4
VVECTOR 14 39
SWIDTH1 0 -1000
DWIDTH1 0 -48
BITMAP 
003807
00700E
00E01C
01C038
038070
0700E0
0E01C0
1C0380
380700
700E00
E01C00
700E00
380700
1C0380
0E01C0
0700E0
038070
01C038
00E01C
00700E
003807
ENDCHAR
STARTCHAR charC8
ENCODING 200
SWIDTH 604 0
DWIDTH 29 0
BBX 24 21 3 4
VVECTOR 15 39
SWIDTH1 0 -1000
DWIDTH1 0 -48
BITMAP 
E01C00
700E00
380700
1C0380
0E01C0
0700E0
038070
01C038
00E01C
00700E
003807
00700E
00E01C
01C038
038070
0700E0
0E01C0
1C0380
380700
700E00
E01C00
ENDCHAR
STARTCHAR charC9
ENCODING 201
SWIDTH 833 0
DWIDTH 40 0
BBX 32 4 4 0
VVECTOR 20 39
SWIDTH1 0 -1000
DWIDTH1 0 -48
BITMAP 
7803C01E
FC07E03F
FC07E03F
7803C01E
ENDCHAR
STARTCHAR charCA
ENCODING 202
SWIDTH 458 0
DWIDTH 22 0
BBX 0 0 28 -9
VVECTOR 28 -9
SWIDTH1 0 0
DWIDTH1 0 0
BITMAP 
ENDCHAR
STARTCHAR charCB
ENCODING 203
SWIDTH 771 0
DWIDTH 37 0
BBX 35 39 1 0
VVECTOR 19 39
SWIDTH1 0 -1000
DWIDTH1 0 -48
BITMAP 
001E000000
001F000000
0007800000
0001C00000
0000200000
0000000000
0000000000
0000000000
0000E00000
0001F00000
0001F00000
0003780000
0003780000
00063C0000
00063C0000
000C1E0000
000C1E0000
00080E0000
00180F0000
00180F0000
0010070000
0030078000
0030078000
0020038000
006003C000
006003C000
004001C000
00BFFEE000
00C001E000
008000E000
018000F000
018000F000
0100007000
0300007800
0300007800
0200003800
0600003C00
0D00005E00
FFF007FFE0
ENDCHAR
STARTCHAR charCC
ENCODING 204
SWIDTH 771 0
DWIDTH 37 0
BBX 35 39 1 0
VVECTOR 19 39
SWIDTH1 0 -1000
DWIDTH1 0 -48
BITMAP 
0007E00C00
0018F81800
00303E3000
00600FC000
0000000000
0000000000
0000400000
0000E00000
0000E00000
0001F00000
0001F00000
0003780000
0003780000
00063C0000
00063C0000
000C1E0000
000C1E0000
00080E0000
00180F0000
00180F0000
0010070000
0030078000
0030078000
0020038000
006003C000
006003C000
004001C000
00BFFEE000
00C001E000
008000E000
018000F000
018000F000
0100007000
0300007800
0300007800
0200003800
0600003C00
0D00005E00
FFF007FFE0
ENDCHAR
STARTCHAR charCD
ENCODING 205
SWIDTH 812 0
DWIDTH 39 0
BBX 33 40 3 -1
VVECTOR 20 39
SWIDTH1 0 -1000
DWIDTH1 0 -48
BITMAP 
001F003000
0063E06000
00C0F8C000
01801F0000
0000000000
0000000000
0000000000
000FF80000
0070070000
01C001C000
038000E000
0700007000
0E00003800
1E00003C00
1C00001C00
3C00001E00
3C00001E00
7800000F00
7800000F00
F800000F80
7800000F00
F800000F80
F800000F80
F800000F80
F800000F80
F800000F80
7800000F00
F800000F80
7800000F00
7800000F00
3C00001E00
3C00001E00
1C00001C00
1E00003C00
0E00003800
0700007000
038000E000
01C001C000
0070070000
000FF80000
ENDCHAR
STARTCHAR charCE
ENCODING 206
SWIDTH 1125 0
DWIDTH 54 0
BBX 49 33 3 0
VVECTOR 28 39
SWIDTH1 0 -1000
DWIDTH1 0 -48
BITMAP 
000FFFFFFFFF00
00700FFC007F00
01C003F8001F00
038001F8000F00
070000F8000700
0E000078000700
1E000078000300
1C000038000300
3C000038000100
3C000038010100
78000018010100
78000018010000
78000018010000
F8000018030000
F8000018070000
F800001FFB0000
F8000018070000
F8000018030000
F8000018010000
F8000018010000
78000018010000
78000018010000
78000018000080
3C000038000080
3C000038000080
1C000038000180
1E000078000180
0E000078000380
070000F8000380
038001F8000780
01C003F8000F80
00700FFC003F80
000FFFFFFFFF80
ENDCHAR
STARTCHAR charCF
ENCODING 207
SWIDTH 958 0
DWIDTH 46 0
BBX 40 24 3 0
VVECTOR 23 39
SWIDTH1 0 -1000
DWIDTH1 0 -48
BITMAP 
007E001F00
0381C0E0E0
0E00738038
1C003F001C
3C001E001E
38001E000E
78001E000F
78001E000F
F8001E000F
F8001E000F
F8001E000F
F8001DFFFF
F8001E0000
F8001E0000
F8001E0000
F8001E0000
78001E0000
78001E0000
38001E0000
3C003E0006
1C003F000C
0E00738018
0381C0E060
007E001F80
ENDCHAR
STARTCHAR charD0
ENCODING 208
SWIDTH 375 0
DWIDTH 18 0
BBX 14 2 2 20
VVECTOR 9 39
SWIDTH1 0 -1000
DWIDTH1 0 -48
BITMAP 
FFFC
FFFC
ENDCHAR
STARTCHAR charD1
ENCODING 209
SWIDTH 833 0
DWIDTH 40 0
BBX 40 2 0 19
VVECTOR 20 39
SWIDTH1 0 -1000
DWIDTH1 0 -48
BITMAP 
FFFFFFFFFF
FFFFFFFFFF
ENDCHAR
STARTCHAR charD2
ENCODING 210
SWIDTH 479 0
DWIDTH 23 0
BBX 18 11 3 22
VVECTOR 12 39
SWIDTH1 0 -1000
DWIDTH1 0 -48
BITMAP 
0600C0
0C0180
180300
300600
600C00
600C00
E01C00
D81B00
FC1F80
FC1F80
780F00
ENDCHAR
STARTCHAR charD3
ENCODING 211
SWIDTH 479 0
DWIDTH 23 0
BBX 18 11 2 22
VVECTOR 11 39
SWIDTH1 0 -1000
DWIDTH1 0 -48
BITMAP 
3C0780
7E0FC0
7E0FC0
3606C0
0E01C0
0C0180
0C0180
180300
300600
600C00
C01800
ENDCHAR
STARTCHAR charD4
ENCODING 212
SWIDTH 250 0
DWIDTH 12 0
BBX 7 11 3 22
VVECTOR 7 39
SWIDTH1 0 -1000
DWIDTH1 0 -48
BITMAP 
06
0C
18
30
60
60
E0
D8
FC
FC
78
ENDCHAR
STARTCHAR charD5
ENCODING 213
SWIDTH 250 0
DWIDTH 12 0
BBX 7 11 2 22
VVECTOR 6 39
SWIDTH1 0 -1000
DWIDTH1 0 -48
BITMAP 
3C
7E
7E
36
0E
0C
0C
18
30
60
C0
ENDCHAR
STARTCHAR charD6
ENCODING 214
SWIDTH 833 0
DWIDTH 40 0
BBX 29 21 5 6
VVECTOR 20 39
SWIDTH1 0 -1000
DWIDTH1 0 -48
BITMAP 
00070000
000F8000
000F8000
00070000
00000000
00000000
00000000
00000000
00000000
FFFFFFF8
FFFFFFF8
00000000
00000000
00000000
00000000
00000000
00000000
00070000
000F8000
000F8000
00070000
ENDCHAR
STARTCHAR charD7
ENCODING 215
SWIDTH 833 0
DWIDTH 40 0
BBX 29 29 5 2
VVECTOR 20 39
SWIDTH1 0 -1000
DWIDTH1 0 -48
BITMAP 
00020000
00070000
000F8000
001DC000
0038E000
00707000
00E03800
01C01C00
03800E00
07000700
0E000380
1C0001C0
380000E0
70000070
E0000038
70000070
380000E0
1C0001C0
0E000380
07000700
03800E00
01C01C00
00E03800
00707000
0038E000
001DC000
000F8000
00070000
00020000
ENDCHAR
STARTCHAR charD8
ENCODING 216
SWIDTH 708 0
DWIDTH 34 0
BBX 31 41 1 -8
VVECTOR 17 39
SWIDTH1 0 -1000
DWIDTH1 0 -48
BITMAP 
00700E00
00F81F00
00F81F00
00700E00
00000000
00000000
00000000
00000000
00000000
FFFC0FFE
0F4000A0
07800060
03C000C0
03C00080
01E00180
01E00100
00F00300
00F00200
00780600
00780400
003C0C00
003C0C00
001E0800
001E1800
000F1000
000F3000
0007A000
0007A000
0003E000
0003C000
0001C000
00018000
00010000
00030000
1C020000
3E060000
2C040000
200C0000
10080000
0C300000
03C00000
ENDCHAR
STARTCHAR missing
ENCODING -1
SWIDTH 646 0
DWIDTH 31 0
BBX 28 34 2 0
VVECTOR 16 39
SWIDTH1 0 -1000
DWIDTH1 0 -48
BITMAP 
FFFFFFF0
FFC03FF0
FE0007F0
F80003F0
F01F00F0
E07FC070
E0FFE070
C1FFF030
C3FFF030
C23FF030
C01FF030
C01FF030
E03FE070
F07FE070
FFFFC0F0
FFFF81F0
FFFF03F0
FFFE0FF0
FFFC1FF0
FFFC3FF0
FFF87FF0
FFF87FF0
FFF8FFF0
FFF8FFF0
FFF8FFF0
FFFFFFF0
FFFFFFF0
FFFFFFF0
FFF07FF0
FFE03FF0
FFE03FF0
FFE03FF0
FFF07FF0
FFFFFFF0
ENDCHAR
ENDFONT
